<?xml version="1.0" encoding="UTF-8" standalone="no"?>
<!DOCTYPE svg PUBLIC "-//W3C//DTD SVG 1.1//EN"
 "http://www.w3.org/Graphics/SVG/1.1/DTD/svg11.dtd">
<!-- Generated by graphviz version 2.50.0 (0)
 -->
<!-- Title: G Pages: 1 -->
<svg width="570pt" height="206pt"
 viewBox="0.00 0.00 570.06 206.00" xmlns="http://www.w3.org/2000/svg" xmlns:xlink="http://www.w3.org/1999/xlink">
<g id="graph0" class="graph" transform="scale(1 1) rotate(0) translate(4 202)">
<title>G</title>
<polygon fill="white" stroke="transparent" points="-4,4 -4,-202 566.06,-202 566.06,4 -4,4"/>
<!-- setsun -->
<g id="node1" class="node">
<title>setsun</title>
<ellipse fill="none" stroke="black" cx="72.14" cy="-180" rx="36.29" ry="18"/>
<text text-anchor="middle" x="72.14" y="-176.3" font-family="Helvetica,Arial,sans-serif" font-size="14.00">setsun</text>
</g>
<!-- ForPrivacyNET -->
<g id="node2" class="node">
<title>ForPrivacyNET</title>
<ellipse fill="none" stroke="black" cx="262.18" cy="-180" rx="70.39" ry="18"/>
<text text-anchor="middle" x="262.18" y="-176.3" font-family="Helvetica,Arial,sans-serif" font-size="14.00">ForPrivacyNET</text>
</g>
<!-- setsun&#45;&gt;ForPrivacyNET -->
<g id="edge1" class="edge">
<title>setsun&#45;&gt;ForPrivacyNET</title>
<path fill="none" stroke="black" d="M108.95,-180C129.46,-180 156.07,-180 181.28,-180"/>
<polygon fill="black" stroke="black" points="181.61,-183.5 191.61,-180 181.61,-176.5 181.61,-183.5"/>
</g>
<!-- onionDAOrel0aded1 -->
<g id="node9" class="node">
<title>onionDAOrel0aded1</title>
<ellipse fill="none" stroke="black" cx="471.06" cy="-99" rx="90.98" ry="18"/>
<text text-anchor="middle" x="471.06" y="-95.3" font-family="Helvetica,Arial,sans-serif" font-size="14.00">onionDAOrel0aded1</text>
</g>
<!-- ForPrivacyNET&#45;&gt;onionDAOrel0aded1 -->
<g id="edge5" class="edge">
<title>ForPrivacyNET&#45;&gt;onionDAOrel0aded1</title>
<path fill="none" stroke="black" d="M307.08,-166.08C319.14,-162.06 332.17,-157.53 344.07,-153 370.95,-142.77 400.53,-130.17 424.27,-119.71"/>
<polygon fill="black" stroke="black" points="426,-122.77 433.73,-115.52 423.17,-116.37 426,-122.77"/>
</g>
<!-- antifaang -->
<g id="node3" class="node">
<title>antifaang</title>
<ellipse fill="none" stroke="black" cx="72.14" cy="-126" rx="46.59" ry="18"/>
<text text-anchor="middle" x="72.14" y="-122.3" font-family="Helvetica,Arial,sans-serif" font-size="14.00">antifaang</text>
</g>
<!-- mevPLicebeer10b -->
<g id="node4" class="node">
<title>mevPLicebeer10b</title>
<ellipse fill="none" stroke="black" cx="262.18" cy="-126" rx="81.79" ry="18"/>
<text text-anchor="middle" x="262.18" y="-122.3" font-family="Helvetica,Arial,sans-serif" font-size="14.00">mevPLicebeer10b</text>
</g>
<!-- antifaang&#45;&gt;mevPLicebeer10b -->
<g id="edge2" class="edge">
<title>antifaang&#45;&gt;mevPLicebeer10b</title>
<path fill="none" stroke="black" d="M119.14,-126C134.5,-126 152.2,-126 169.78,-126"/>
<polygon fill="black" stroke="black" points="170.09,-129.5 180.09,-126 170.09,-122.5 170.09,-129.5"/>
</g>
<!-- mevPLicebeer10b&#45;&gt;onionDAOrel0aded1 -->
<g id="edge6" class="edge">
<title>mevPLicebeer10b&#45;&gt;onionDAOrel0aded1</title>
<path fill="none" stroke="black" d="M332.93,-116.9C349.51,-114.73 367.37,-112.4 384.56,-110.16"/>
<polygon fill="black" stroke="black" points="385.12,-113.62 394.58,-108.85 384.21,-106.67 385.12,-113.62"/>
</g>
<!-- VTITor4 -->
<g id="node5" class="node">
<title>VTITor4</title>
<ellipse fill="none" stroke="black" cx="72.14" cy="-72" rx="42.49" ry="18"/>
<text text-anchor="middle" x="72.14" y="-68.3" font-family="Helvetica,Arial,sans-serif" font-size="14.00">VTITor4</text>
</g>
<!-- Dingle -->
<g id="node6" class="node">
<title>Dingle</title>
<ellipse fill="none" stroke="black" cx="262.18" cy="-72" rx="36" ry="18"/>
<text text-anchor="middle" x="262.18" y="-68.3" font-family="Helvetica,Arial,sans-serif" font-size="14.00">Dingle</text>
</g>
<!-- VTITor4&#45;&gt;Dingle -->
<g id="edge3" class="edge">
<title>VTITor4&#45;&gt;Dingle</title>
<path fill="none" stroke="black" d="M114.41,-72C144.52,-72 185.3,-72 216.24,-72"/>
<polygon fill="black" stroke="black" points="216.32,-75.5 226.32,-72 216.32,-68.5 216.32,-75.5"/>
</g>
<!-- Dingle&#45;&gt;onionDAOrel0aded1 -->
<g id="edge8" class="edge">
<title>Dingle&#45;&gt;onionDAOrel0aded1</title>
<path fill="none" stroke="black" d="M296.88,-76.4C320.75,-79.51 353.88,-83.84 384.79,-87.87"/>
<polygon fill="black" stroke="black" points="384.36,-91.34 394.73,-89.17 385.27,-84.4 384.36,-91.34"/>
</g>
<!-- PeachUnknown -->
<g id="node7" class="node">
<title>PeachUnknown</title>
<ellipse fill="none" stroke="black" cx="72.14" cy="-18" rx="72.29" ry="18"/>
<text text-anchor="middle" x="72.14" y="-14.3" font-family="Helvetica,Arial,sans-serif" font-size="14.00">PeachUnknown</text>
</g>
<!-- fastlane -->
<g id="node8" class="node">
<title>fastlane</title>
<ellipse fill="none" stroke="black" cx="262.18" cy="-18" rx="41.69" ry="18"/>
<text text-anchor="middle" x="262.18" y="-14.3" font-family="Helvetica,Arial,sans-serif" font-size="14.00">fastlane</text>
</g>
<!-- PeachUnknown&#45;&gt;fastlane -->
<g id="edge4" class="edge">
<title>PeachUnknown&#45;&gt;fastlane</title>
<path fill="none" stroke="black" d="M144.5,-18C166.35,-18 189.94,-18 210.15,-18"/>
<polygon fill="black" stroke="black" points="210.39,-21.5 220.39,-18 210.39,-14.5 210.39,-21.5"/>
</g>
<!-- fastlane&#45;&gt;onionDAOrel0aded1 -->
<g id="edge7" class="edge">
<title>fastlane&#45;&gt;onionDAOrel0aded1</title>
<path fill="none" stroke="black" d="M296.46,-28.42C311.15,-33.2 328.57,-39.1 344.07,-45 370.95,-55.23 400.53,-67.83 424.27,-78.29"/>
<polygon fill="black" stroke="black" points="423.17,-81.63 433.73,-82.48 426,-75.23 423.17,-81.63"/>
</g>
</g>
</svg>
