<?xml version="1.0" encoding="UTF-8" standalone="no"?>
<!DOCTYPE svg PUBLIC "-//W3C//DTD SVG 1.1//EN"
 "http://www.w3.org/Graphics/SVG/1.1/DTD/svg11.dtd">
<!-- Generated by graphviz version 7.0.0 (0)
 -->
<!-- Title: G Pages: 1 -->
<svg width="310pt" height="720pt"
 viewBox="0.00 0.00 309.84 720.00" xmlns="http://www.w3.org/2000/svg" xmlns:xlink="http://www.w3.org/1999/xlink">
<g id="graph0" class="graph" transform="scale(0.701631 0.701631) rotate(0) translate(4 1022.18)">
<title>G</title>
<polygon fill="white" stroke="none" points="-4,4 -4,-1022.18 437.6,-1022.18 437.6,4 -4,4"/>
<!-- uc -->
<g id="node1" class="node">
<title>uc</title>
<ellipse fill="white" stroke="white" cx="292" cy="-1000.18" rx="67.69" ry="18"/>
<text text-anchor="middle" x="292" y="-996.48" font-family="Helvetica,Arial,sans-serif" font-size="14.00">user computer</text>
</g>
<!-- n0 -->
<g id="node2" class="node">
<title>n0</title>
<ellipse fill="white" stroke="white" cx="292" cy="-928.18" rx="55.79" ry="18"/>
<text text-anchor="middle" x="292" y="-924.48" font-family="Helvetica,Arial,sans-serif" font-size="14.00">entry guard</text>
</g>
<!-- uc&#45;&gt;n0 -->
<g id="edge1" class="edge">
<title>uc&#45;&gt;n0</title>
<path fill="none" stroke="black" stroke-dasharray="1,5" d="M292,-981.88C292,-974.59 292,-965.91 292,-957.72"/>
<polygon fill="black" stroke="black" points="295.5,-957.8 292,-947.8 288.5,-957.8 295.5,-957.8"/>
</g>
<!-- n1 -->
<g id="node4" class="node">
<title>n1</title>
<ellipse fill="grey" stroke="grey" cx="216" cy="-853.38" rx="20.6" ry="20.6"/>
<text text-anchor="middle" x="216" y="-849.68" font-family="Helvetica,Arial,sans-serif" font-size="14.00">n1</text>
</g>
<!-- n0&#45;&gt;n1 -->
<g id="edge26" class="edge">
<title>n0&#45;&gt;n1</title>
<path fill="none" stroke="black" d="M274.75,-910.66C265.19,-901.49 253.08,-889.9 242.35,-879.62"/>
<polygon fill="black" stroke="black" points="246.18,-876.02 231.71,-869.43 238.91,-883.6 246.18,-876.02"/>
</g>
<!-- n3 -->
<g id="node5" class="node">
<title>n3</title>
<ellipse fill="white" stroke="white" cx="116" cy="-700.99" rx="27" ry="18"/>
<text text-anchor="middle" x="116" y="-697.29" font-family="Helvetica,Arial,sans-serif" font-size="14.00">n3</text>
</g>
<!-- n0&#45;&gt;n3 -->
<g id="edge11" class="edge">
<title>n0&#45;&gt;n3</title>
<path fill="none" stroke="black" stroke-dasharray="1,5" d="M253.49,-914.83C231.56,-906.24 204.79,-892.93 186,-874.18 145.91,-834.17 127.89,-768.09 120.52,-730.49"/>
<polygon fill="black" stroke="black" points="124,-730.05 118.76,-720.84 117.11,-731.3 124,-730.05"/>
</g>
<!-- n10 -->
<g id="node13" class="node">
<title>n10</title>
<ellipse fill="grey" stroke="grey" cx="283" cy="-477.64" rx="25.2" ry="25.2"/>
<text text-anchor="middle" x="283" y="-473.94" font-family="Helvetica,Arial,sans-serif" font-size="14.00">n10</text>
</g>
<!-- n0&#45;&gt;n10 -->
<g id="edge32" class="edge">
<title>n0&#45;&gt;n10</title>
<path fill="none" stroke="black" stroke-dasharray="1,5" d="M302.03,-910.25C317.14,-883.07 344,-827.62 344,-776.79 344,-776.79 344,-776.79 344,-627.99 344,-583.89 320.93,-537.55 303.16,-508.4"/>
<polygon fill="black" stroke="black" points="306.24,-506.72 297.95,-500.12 300.32,-510.45 306.24,-506.72"/>
</g>
<!-- n11 -->
<g id="node14" class="node">
<title>n11</title>
<ellipse fill="grey" stroke="grey" cx="279" cy="-390.94" rx="25.2" ry="25.2"/>
<text text-anchor="middle" x="279" y="-387.24" font-family="Helvetica,Arial,sans-serif" font-size="14.00">n11</text>
</g>
<!-- n0&#45;&gt;n11 -->
<g id="edge31" class="edge">
<title>n0&#45;&gt;n11</title>
<path fill="none" stroke="black" stroke-dasharray="1,5" d="M309.78,-911.05C336.01,-885.39 382,-832.47 382,-776.79 382,-776.79 382,-776.79 382,-627.99 382,-547.52 331.09,-463.52 300.85,-420.74"/>
<polygon fill="black" stroke="black" points="303.77,-418.8 295.08,-412.74 298.09,-422.9 303.77,-418.8"/>
</g>
<!-- nx -->
<g id="node3" class="node">
<title>nx</title>
<ellipse fill="white" stroke="white" cx="379" cy="-234" rx="54.69" ry="18"/>
<text text-anchor="middle" x="379" y="-230.3" font-family="Helvetica,Arial,sans-serif" font-size="14.00">coordinator</text>
</g>
<!-- n1&#45;&gt;n3 -->
<g id="edge2" class="edge">
<title>n1&#45;&gt;n3</title>
<path fill="none" stroke="black" stroke-dasharray="1,5" d="M204.62,-835.83C197.03,-824.76 186.86,-809.84 178,-796.58 162.37,-773.19 144.82,-746.36 132.39,-727.26"/>
<polygon fill="black" stroke="black" points="135.44,-725.52 127.05,-719.05 129.57,-729.34 135.44,-725.52"/>
</g>
<!-- n2 -->
<g id="node11" class="node">
<title>n2</title>
<ellipse fill="grey" stroke="grey" cx="241" cy="-775.79" rx="20.6" ry="20.6"/>
<text text-anchor="middle" x="241" y="-772.09" font-family="Helvetica,Arial,sans-serif" font-size="14.00">n2</text>
</g>
<!-- n1&#45;&gt;n2 -->
<g id="edge27" class="edge">
<title>n1&#45;&gt;n2</title>
<path fill="none" stroke="black" d="M222.31,-833.31C224.53,-826.59 227.1,-818.82 229.61,-811.23"/>
<polygon fill="black" stroke="black" points="234.49,-813.18 234.22,-797.29 224.52,-809.89 234.49,-813.18"/>
</g>
<!-- n9 -->
<g id="node12" class="node">
<title>n9</title>
<ellipse fill="white" stroke="white" cx="137" cy="-556.99" rx="27" ry="18"/>
<text text-anchor="middle" x="137" y="-553.29" font-family="Helvetica,Arial,sans-serif" font-size="14.00">n9</text>
</g>
<!-- n1&#45;&gt;n9 -->
<g id="edge13" class="edge">
<title>n1&#45;&gt;n9</title>
<path fill="none" stroke="black" stroke-dasharray="1,5" d="M210.82,-833.07C197.2,-782.34 160.4,-645.17 144.49,-585.9"/>
<polygon fill="black" stroke="black" points="147.96,-585.34 141.99,-576.59 141.2,-587.16 147.96,-585.34"/>
</g>
<!-- n4 -->
<g id="node6" class="node">
<title>n4</title>
<ellipse fill="white" stroke="white" cx="99" cy="-628.99" rx="27" ry="18"/>
<text text-anchor="middle" x="99" y="-625.29" font-family="Helvetica,Arial,sans-serif" font-size="14.00">n4</text>
</g>
<!-- n3&#45;&gt;n4 -->
<g id="edge3" class="edge">
<title>n3&#45;&gt;n4</title>
<path fill="none" stroke="black" stroke-dasharray="1,5" d="M111.88,-683.04C110.07,-675.59 107.9,-666.63 105.85,-658.21"/>
<polygon fill="black" stroke="black" points="109.31,-657.62 103.55,-648.73 102.51,-659.28 109.31,-657.62"/>
</g>
<!-- n7 -->
<g id="node9" class="node">
<title>n7</title>
<ellipse fill="white" stroke="white" cx="104" cy="-162" rx="27" ry="18"/>
<text text-anchor="middle" x="104" y="-158.3" font-family="Helvetica,Arial,sans-serif" font-size="14.00">n7</text>
</g>
<!-- n3&#45;&gt;n7 -->
<g id="edge12" class="edge">
<title>n3&#45;&gt;n7</title>
<path fill="none" stroke="black" stroke-dasharray="1,5" d="M98.63,-686.68C86.98,-676.88 72.14,-662.6 63,-646.99 42.24,-611.53 38,-599.07 38,-557.99 38,-557.99 38,-557.99 38,-307.8 38,-262.28 65.34,-215.37 84.83,-187.72"/>
<polygon fill="black" stroke="black" points="87.64,-189.81 90.69,-179.66 81.98,-185.69 87.64,-189.81"/>
</g>
<!-- n5 -->
<g id="node7" class="node">
<title>n5</title>
<ellipse fill="grey" stroke="grey" cx="208" cy="-308.8" rx="20.6" ry="20.6"/>
<text text-anchor="middle" x="208" y="-305.1" font-family="Helvetica,Arial,sans-serif" font-size="14.00">n5</text>
</g>
<!-- n4&#45;&gt;n5 -->
<g id="edge4" class="edge">
<title>n4&#45;&gt;n5</title>
<path fill="none" stroke="black" stroke-dasharray="1,5" d="M97.4,-610.68C96.18,-592.57 95.53,-563.42 101,-538.99 118.51,-460.77 165.45,-377.57 190.95,-336.27"/>
<polygon fill="black" stroke="black" points="193.79,-338.31 196.13,-327.98 187.86,-334.6 193.79,-338.31"/>
</g>
<!-- n4&#45;&gt;n9 -->
<g id="edge25" class="edge">
<title>n4&#45;&gt;n9</title>
<path fill="none" stroke="black" stroke-dasharray="1,5" d="M107.81,-611.75C112.27,-603.54 117.8,-593.36 122.84,-584.08"/>
<polygon fill="black" stroke="black" points="125.82,-585.92 127.51,-575.46 119.67,-582.58 125.82,-585.92"/>
</g>
<!-- n5&#45;&gt;nx -->
<g id="edge30" class="edge">
<title>n5&#45;&gt;nx</title>
<path fill="none" stroke="black" d="M226.95,-299.73C251.99,-289.07 296.95,-269.93 331.5,-255.22"/>
<polygon fill="black" stroke="black" points="333.4,-260.12 345.15,-249.41 329.29,-250.46 333.4,-260.12"/>
</g>
<!-- n6 -->
<g id="node8" class="node">
<title>n6</title>
<ellipse fill="white" stroke="white" cx="131" cy="-234" rx="27" ry="18"/>
<text text-anchor="middle" x="131" y="-230.3" font-family="Helvetica,Arial,sans-serif" font-size="14.00">n6</text>
</g>
<!-- n5&#45;&gt;n6 -->
<g id="edge5" class="edge">
<title>n5&#45;&gt;n6</title>
<path fill="none" stroke="black" stroke-dasharray="1,5" d="M193.52,-294.11C182.54,-283.73 167.24,-269.26 154.52,-257.23"/>
<polygon fill="black" stroke="black" points="156.98,-254.75 147.31,-250.42 152.17,-259.83 156.98,-254.75"/>
</g>
<!-- n8 -->
<g id="node10" class="node">
<title>n8</title>
<ellipse fill="white" stroke="white" cx="169" cy="-90" rx="27" ry="18"/>
<text text-anchor="middle" x="169" y="-86.3" font-family="Helvetica,Arial,sans-serif" font-size="14.00">n8</text>
</g>
<!-- n5&#45;&gt;n8 -->
<g id="edge10" class="edge">
<title>n5&#45;&gt;n8</title>
<path fill="none" stroke="black" stroke-dasharray="1,5" d="M204.47,-288.18C197.55,-249.7 182.17,-164.2 174.13,-119.49"/>
<polygon fill="black" stroke="black" points="177.59,-119.01 172.38,-109.78 170.7,-120.24 177.59,-119.01"/>
</g>
<!-- n12 -->
<g id="node15" class="node">
<title>n12</title>
<ellipse fill="white" stroke="white" cx="279" cy="-234" rx="27" ry="18"/>
<text text-anchor="middle" x="279" y="-230.3" font-family="Helvetica,Arial,sans-serif" font-size="14.00">n12</text>
</g>
<!-- n5&#45;&gt;n12 -->
<g id="edge17" class="edge">
<title>n5&#45;&gt;n12</title>
<path fill="none" stroke="black" stroke-dasharray="1,5" d="M222.03,-293.42C232.04,-283.15 245.71,-269.13 257.15,-257.4"/>
<polygon fill="black" stroke="black" points="259.47,-260.04 263.95,-250.44 254.46,-255.15 259.47,-260.04"/>
</g>
<!-- n13 -->
<g id="node16" class="node">
<title>n13</title>
<ellipse fill="white" stroke="white" cx="169" cy="-18" rx="27" ry="18"/>
<text text-anchor="middle" x="169" y="-14.3" font-family="Helvetica,Arial,sans-serif" font-size="14.00">n13</text>
</g>
<!-- n5&#45;&gt;n13 -->
<g id="edge18" class="edge">
<title>n5&#45;&gt;n13</title>
<path fill="none" stroke="black" stroke-dasharray="1,5" d="M211.54,-288.23C218.2,-247.01 229.77,-148.75 205,-72 201.67,-61.69 195.67,-51.56 189.51,-42.96"/>
<polygon fill="black" stroke="black" points="192.4,-40.98 183.54,-35.17 186.84,-45.24 192.4,-40.98"/>
</g>
<!-- n6&#45;&gt;n7 -->
<g id="edge6" class="edge">
<title>n6&#45;&gt;n7</title>
<path fill="none" stroke="black" stroke-dasharray="1,5" d="M124.46,-216.05C121.48,-208.32 117.87,-198.96 114.52,-190.27"/>
<polygon fill="black" stroke="black" points="117.88,-189.27 111.02,-181.2 111.35,-191.79 117.88,-189.27"/>
</g>
<!-- n7&#45;&gt;n8 -->
<g id="edge7" class="edge">
<title>n7&#45;&gt;n8</title>
<path fill="none" stroke="black" stroke-dasharray="1,5" d="M117.78,-146.15C126.4,-136.87 137.68,-124.73 147.46,-114.19"/>
<polygon fill="black" stroke="black" points="149.97,-116.64 154.21,-106.93 144.84,-111.88 149.97,-116.64"/>
</g>
<!-- n8&#45;&gt;n13 -->
<g id="edge21" class="edge">
<title>n8&#45;&gt;n13</title>
<path fill="none" stroke="black" stroke-dasharray="1,5" d="M163.12,-72.05C162.33,-64.57 162.08,-55.58 162.37,-47.14"/>
<polygon fill="black" stroke="black" points="165.85,-47.51 163.04,-37.3 158.87,-47.04 165.85,-47.51"/>
</g>
<!-- n2&#45;&gt;nx -->
<g id="edge28" class="edge">
<title>n2&#45;&gt;nx</title>
<path fill="none" stroke="black" d="M249.99,-757.04C255.2,-746.24 261.57,-732.06 266,-718.99 321.98,-553.7 360.04,-347.5 373.55,-268.19"/>
<polygon fill="black" stroke="black" points="378.7,-269.2 376.01,-253.54 368.35,-267.47 378.7,-269.2"/>
</g>
<!-- n2&#45;&gt;n3 -->
<g id="edge8" class="edge">
<title>n2&#45;&gt;n3</title>
<path fill="none" stroke="black" stroke-dasharray="1,5" d="M223.36,-764.51C203.22,-752.78 169.95,-733.4 145.77,-719.33"/>
<polygon fill="black" stroke="black" points="147.75,-716.43 137.34,-714.42 144.22,-722.47 147.75,-716.43"/>
</g>
<!-- n2&#45;&gt;n5 -->
<g id="edge9" class="edge">
<title>n2&#45;&gt;n5</title>
<path fill="none" stroke="black" stroke-dasharray="1,5" d="M239.58,-754.81C234.41,-681.92 216.53,-429.98 210.22,-341.12"/>
<polygon fill="black" stroke="black" points="213.72,-340.94 209.52,-331.21 206.74,-341.44 213.72,-340.94"/>
</g>
<!-- n2&#45;&gt;n10 -->
<g id="edge35" class="edge">
<title>n2&#45;&gt;n10</title>
<path fill="none" stroke="black" d="M243.82,-754.89C250.64,-706.78 268.15,-583.35 277.27,-519.01"/>
<polygon fill="black" stroke="black" points="282.44,-520 279.35,-504.41 272.04,-518.52 282.44,-520"/>
</g>
<!-- n9&#45;&gt;n10 -->
<g id="edge14" class="edge">
<title>n9&#45;&gt;n10</title>
<path fill="none" stroke="black" stroke-dasharray="1,5" d="M158.64,-546.04C180.48,-535.81 215.04,-519.15 244,-502.99 246.81,-501.42 249.7,-499.74 252.58,-498.03"/>
<polygon fill="black" stroke="black" points="254.18,-501.15 260.89,-492.95 250.53,-495.18 254.18,-501.15"/>
</g>
<!-- n10&#45;&gt;n3 -->
<g id="edge19" class="edge">
<title>n10&#45;&gt;n3</title>
<path fill="none" stroke="black" stroke-dasharray="1,5" d="M268.23,-498.22C237.73,-538.64 167.9,-631.2 134.48,-675.49"/>
<polygon fill="black" stroke="black" points="131.88,-673.12 128.65,-683.21 137.47,-677.34 131.88,-673.12"/>
</g>
<!-- n10&#45;&gt;n11 -->
<g id="edge33" class="edge">
<title>n10&#45;&gt;n11</title>
<path fill="none" stroke="black" d="M281.84,-452.14C281.56,-446.08 281.24,-439.43 280.93,-432.83"/>
<polygon fill="black" stroke="black" points="286.18,-432.63 280.23,-417.9 275.69,-433.13 286.18,-432.63"/>
</g>
<!-- n11&#45;&gt;nx -->
<g id="edge34" class="edge">
<title>n11&#45;&gt;nx</title>
<path fill="none" stroke="black" d="M292.28,-369.37C309.45,-342.77 339.49,-296.23 359.31,-265.51"/>
<polygon fill="black" stroke="black" points="363.58,-268.58 367.3,-253.13 354.76,-262.88 363.58,-268.58"/>
</g>
<!-- n11&#45;&gt;n5 -->
<g id="edge29" class="edge">
<title>n11&#45;&gt;n5</title>
<path fill="none" stroke="black" d="M262.53,-371.36C253.52,-361.19 242.19,-348.39 232.19,-337.11"/>
<polygon fill="black" stroke="black" points="236.17,-333.68 222.3,-325.94 228.31,-340.64 236.17,-333.68"/>
</g>
<!-- n11&#45;&gt;n7 -->
<g id="edge20" class="edge">
<title>n11&#45;&gt;n7</title>
<path fill="none" stroke="black" stroke-dasharray="1,5" d="M255.31,-381.31C212.84,-364.31 125.36,-321.95 95,-252 86.63,-232.72 89.63,-208.95 94.31,-190.82"/>
<polygon fill="black" stroke="black" points="97.65,-191.87 97.1,-181.28 90.93,-189.9 97.65,-191.87"/>
</g>
<!-- n11&#45;&gt;n9 -->
<g id="edge24" class="edge">
<title>n11&#45;&gt;n9</title>
<path fill="none" stroke="black" stroke-dasharray="1,5" d="M262.69,-410.78C236.7,-440.82 185.9,-499.5 157.49,-532.32"/>
<polygon fill="black" stroke="black" points="154.99,-529.85 151.1,-539.7 160.29,-534.43 154.99,-529.85"/>
</g>
<!-- n11&#45;&gt;n12 -->
<g id="edge15" class="edge">
<title>n11&#45;&gt;n12</title>
<path fill="none" stroke="black" stroke-dasharray="1,5" d="M279,-365.39C279,-337.77 279,-292.94 279,-263.72"/>
<polygon fill="black" stroke="black" points="282.5,-263.75 279,-253.75 275.5,-263.75 282.5,-263.75"/>
</g>
<!-- n12&#45;&gt;n13 -->
<g id="edge16" class="edge">
<title>n12&#45;&gt;n13</title>
<path fill="none" stroke="black" stroke-dasharray="1,5" d="M278.24,-215.54C276.13,-184.28 268.15,-117.76 238,-72 228.3,-57.28 213.11,-44.97 199.45,-35.93"/>
<polygon fill="black" stroke="black" points="201.49,-33.08 191.15,-30.74 197.77,-39.01 201.49,-33.08"/>
</g>
<!-- n13&#45;&gt;n3 -->
<g id="edge23" class="edge">
<title>n13&#45;&gt;n3</title>
<path fill="none" stroke="black" stroke-dasharray="1,5" d="M144.79,-26.62C98.06,-43 0,-86.27 0,-161 0,-557.99 0,-557.99 0,-557.99 0,-601.73 13.99,-613.4 42,-646.99 54.09,-661.48 71,-673.99 85.61,-683.21"/>
<polygon fill="black" stroke="black" points="83.61,-686.08 93.97,-688.26 87.23,-680.09 83.61,-686.08"/>
</g>
<!-- n13&#45;&gt;n8 -->
<g id="edge22" class="edge">
<title>n13&#45;&gt;n8</title>
<path fill="none" stroke="black" stroke-dasharray="1,5" d="M174.86,-35.79C175.66,-43.25 175.92,-52.24 175.64,-60.69"/>
<polygon fill="black" stroke="black" points="172.16,-60.33 174.98,-70.54 179.14,-60.8 172.16,-60.33"/>
</g>
</g>
</svg>
