<?xml version="1.0" encoding="UTF-8" standalone="no"?>
<!DOCTYPE svg PUBLIC "-//W3C//DTD SVG 1.1//EN"
 "http://www.w3.org/Graphics/SVG/1.1/DTD/svg11.dtd">
<!-- Generated by graphviz version 2.50.0 (0)
 -->
<!-- Title: G Pages: 1 -->
<svg width="294pt" height="326pt"
 viewBox="0.00 0.00 294.00 326.00" xmlns="http://www.w3.org/2000/svg" xmlns:xlink="http://www.w3.org/1999/xlink">
<g id="graph0" class="graph" transform="scale(1 1) rotate(0) translate(4 322)">
<title>G</title>
<polygon fill="white" stroke="transparent" points="-4,4 -4,-322 290,-322 290,4 -4,4"/>
<g id="clust1" class="cluster">
<title>cluster_0</title>
<polygon fill="none" stroke="black" points="8,-235 8,-310 278,-310 278,-235 8,-235"/>
<text text-anchor="middle" x="143" y="-294.8" font-family="Helvetica,Arial,sans-serif" font-size="14.00">clients</text>
</g>
<g id="clust2" class="cluster">
<title>cluster_2</title>
<polygon fill="none" stroke="black" points="27,-80 27,-227 117,-227 117,-80 27,-80"/>
<text text-anchor="middle" x="72" y="-211.8" font-family="Helvetica,Arial,sans-serif" font-size="14.00">clearnet</text>
</g>
<g id="clust3" class="cluster">
<title>cluster_3</title>
<polygon fill="none" stroke="black" points="94,-8 94,-60 220,-60 220,-8 94,-8"/>
</g>
<!-- client1 -->
<g id="node1" class="node">
<title>client1</title>
<ellipse fill="lightgrey" stroke="black" cx="143" cy="-261" rx="36.29" ry="18"/>
<text text-anchor="middle" x="143" y="-257.3" font-family="Helvetica,Arial,sans-serif" font-size="14.00">client1</text>
</g>
<!-- exit node -->
<g id="node4" class="node">
<title>exit node</title>
<polygon fill="none" stroke="black" points="107.5,-196 36.5,-196 36.5,-160 107.5,-160 107.5,-196"/>
<text text-anchor="middle" x="72" y="-174.3" font-family="Helvetica,Arial,sans-serif" font-size="14.00">exit node</text>
</g>
<!-- client1&#45;&gt;exit node -->
<g id="edge6" class="edge">
<title>client1&#45;&gt;exit node</title>
<path fill="none" stroke="black" d="M128.97,-244C118.93,-232.54 105.22,-216.9 93.77,-203.83"/>
<polygon fill="black" stroke="black" points="96.2,-201.3 86.98,-196.09 90.94,-205.92 96.2,-201.3"/>
</g>
<!-- cc -->
<g id="node6" class="node">
<title>cc</title>
<ellipse fill="none" stroke="black" cx="157" cy="-34" rx="54.69" ry="18"/>
<text text-anchor="middle" x="157" y="-30.3" font-family="Helvetica,Arial,sans-serif" font-size="14.00">coordinator</text>
</g>
<!-- client1&#45;&gt;cc -->
<g id="edge2" class="edge">
<title>client1&#45;&gt;cc</title>
<path fill="none" stroke="black" d="M148.46,-243.04C149.88,-237.94 151.22,-232.29 152,-227 160.57,-168.75 159.7,-99.51 158.33,-62.16"/>
<polygon fill="black" stroke="black" points="161.82,-61.92 157.92,-52.07 154.83,-62.2 161.82,-61.92"/>
</g>
<!-- client2 -->
<g id="node2" class="node">
<title>client2</title>
<ellipse fill="lightgrey" stroke="black" cx="234" cy="-261" rx="36.29" ry="18"/>
<text text-anchor="middle" x="234" y="-257.3" font-family="Helvetica,Arial,sans-serif" font-size="14.00">client2</text>
</g>
<!-- client2&#45;&gt;exit node -->
<g id="edge7" class="edge">
<title>client2&#45;&gt;exit node</title>
<path fill="none" stroke="black" d="M210.71,-247.06C203.47,-243.12 195.44,-238.82 188,-235 164.77,-223.09 138.61,-210.4 117.02,-200.11"/>
<polygon fill="black" stroke="black" points="118.29,-196.84 107.76,-195.72 115.29,-203.17 118.29,-196.84"/>
</g>
<!-- client2&#45;&gt;cc -->
<g id="edge3" class="edge">
<title>client2&#45;&gt;cc</title>
<path fill="none" stroke="black" d="M228.36,-243.1C217.7,-211.17 193.78,-139.85 173,-80 170.94,-74.08 168.71,-67.73 166.58,-61.72"/>
<polygon fill="black" stroke="black" points="169.79,-60.32 163.14,-52.07 163.2,-62.67 169.79,-60.32"/>
</g>
<!-- client3 -->
<g id="node3" class="node">
<title>client3</title>
<ellipse fill="lightgrey" stroke="black" cx="52" cy="-261" rx="36.29" ry="18"/>
<text text-anchor="middle" x="52" y="-257.3" font-family="Helvetica,Arial,sans-serif" font-size="14.00">client3</text>
</g>
<!-- client3&#45;&gt;exit node -->
<g id="edge8" class="edge">
<title>client3&#45;&gt;exit node</title>
<path fill="none" stroke="black" d="M56.24,-242.82C58.87,-232.19 62.29,-218.31 65.28,-206.2"/>
<polygon fill="black" stroke="black" points="68.77,-206.7 67.76,-196.15 61.97,-205.02 68.77,-206.7"/>
</g>
<!-- client3&#45;&gt;cc -->
<g id="edge4" class="edge">
<title>client3&#45;&gt;cc</title>
<path fill="none" stroke="black" d="M74.56,-246.79C81.91,-242.74 90.19,-238.45 98,-235 107.9,-230.62 113.94,-235.2 121,-227 141.94,-202.68 151.59,-109.38 155.2,-62.39"/>
<polygon fill="black" stroke="black" points="158.7,-62.53 155.94,-52.3 151.72,-62.02 158.7,-62.53"/>
</g>
<!-- cloudflare -->
<g id="node5" class="node">
<title>cloudflare</title>
<polygon fill="none" stroke="black" points="109.5,-124 34.5,-124 34.5,-88 109.5,-88 109.5,-124"/>
<text text-anchor="middle" x="72" y="-102.3" font-family="Helvetica,Arial,sans-serif" font-size="14.00">cloudflare</text>
</g>
<!-- exit node&#45;&gt;cloudflare -->
<g id="edge1" class="edge">
<title>exit node&#45;&gt;cloudflare</title>
<path fill="none" stroke="black" d="M72,-159.7C72,-151.98 72,-142.71 72,-134.11"/>
<polygon fill="black" stroke="black" points="75.5,-134.1 72,-124.1 68.5,-134.1 75.5,-134.1"/>
</g>
<!-- cloudflare&#45;&gt;cc -->
<g id="edge5" class="edge">
<title>cloudflare&#45;&gt;cc</title>
<path fill="none" stroke="black" d="M93.01,-87.7C104.12,-78.55 117.88,-67.22 129.79,-57.41"/>
<polygon fill="black" stroke="black" points="132.19,-59.97 137.68,-50.91 127.74,-54.56 132.19,-59.97"/>
</g>
</g>
</svg>
