<?xml version="1.0" encoding="UTF-8" standalone="no"?>
<!DOCTYPE svg PUBLIC "-//W3C//DTD SVG 1.1//EN"
 "http://www.w3.org/Graphics/SVG/1.1/DTD/svg11.dtd">
<!-- Generated by graphviz version 7.0.0 (0)
 -->
<!-- Title: G Pages: 1 -->
<svg width="407pt" height="343pt"
 viewBox="0.00 0.00 406.89 343.19" xmlns="http://www.w3.org/2000/svg" xmlns:xlink="http://www.w3.org/1999/xlink">
<g id="graph0" class="graph" transform="scale(1 1) rotate(0) translate(4 339.19)">
<title>G</title>
<polygon fill="white" stroke="none" points="-4,4 -4,-339.19 402.89,-339.19 402.89,4 -4,4"/>
<!-- uc -->
<g id="node1" class="node">
<title>uc</title>
<ellipse fill="white" stroke="white" cx="199.44" cy="-317.19" rx="67.69" ry="18"/>
<text text-anchor="middle" x="199.44" y="-313.49" font-family="Helvetica,Arial,sans-serif" font-size="14.00">user computer</text>
</g>
<!-- n0 -->
<g id="node2" class="node">
<title>n0</title>
<ellipse fill="white" stroke="white" cx="199.44" cy="-245.19" rx="55.79" ry="18"/>
<text text-anchor="middle" x="199.44" y="-241.49" font-family="Helvetica,Arial,sans-serif" font-size="14.00">entry guard</text>
</g>
<!-- uc&#45;&gt;n0 -->
<g id="edge1" class="edge">
<title>uc&#45;&gt;n0</title>
<path fill="none" stroke="black" stroke-dasharray="1,5" d="M199.44,-298.89C199.44,-291.6 199.44,-282.92 199.44,-274.73"/>
<polygon fill="black" stroke="black" points="202.94,-274.81 199.44,-264.81 195.94,-274.81 202.94,-274.81"/>
</g>
<!-- n1 -->
<g id="node6" class="node">
<title>n1</title>
<ellipse fill="grey" stroke="grey" cx="199.44" cy="-170.39" rx="20.6" ry="20.6"/>
<text text-anchor="middle" x="199.44" y="-166.69" font-family="Helvetica,Arial,sans-serif" font-size="14.00">n1</text>
</g>
<!-- n0&#45;&gt;n1 -->
<g id="edge2" class="edge">
<title>n0&#45;&gt;n1</title>
<path fill="none" stroke="black" d="M199.44,-226.94C199.44,-221.1 199.44,-214.34 199.44,-207.59"/>
<polygon fill="black" stroke="black" points="204.69,-207.87 199.44,-192.87 194.19,-207.87 204.69,-207.87"/>
</g>
<!-- nx0 -->
<g id="node3" class="node">
<title>nx0</title>
<ellipse fill="white" stroke="white" cx="60.44" cy="-18" rx="60.39" ry="18"/>
<text text-anchor="middle" x="60.44" y="-14.3" font-family="Helvetica,Arial,sans-serif" font-size="14.00">destination 1</text>
</g>
<!-- nx1 -->
<g id="node4" class="node">
<title>nx1</title>
<ellipse fill="white" stroke="white" cx="199.44" cy="-18" rx="60.39" ry="18"/>
<text text-anchor="middle" x="199.44" y="-14.3" font-family="Helvetica,Arial,sans-serif" font-size="14.00">destination 2</text>
</g>
<!-- nx2 -->
<g id="node5" class="node">
<title>nx2</title>
<ellipse fill="white" stroke="white" cx="338.44" cy="-18" rx="60.39" ry="18"/>
<text text-anchor="middle" x="338.44" y="-14.3" font-family="Helvetica,Arial,sans-serif" font-size="14.00">destination 3</text>
</g>
<!-- n2 -->
<g id="node7" class="node">
<title>n2</title>
<ellipse fill="grey" stroke="grey" cx="199.44" cy="-92.8" rx="20.6" ry="20.6"/>
<text text-anchor="middle" x="199.44" y="-89.1" font-family="Helvetica,Arial,sans-serif" font-size="14.00">n2</text>
</g>
<!-- n1&#45;&gt;n2 -->
<g id="edge3" class="edge">
<title>n1&#45;&gt;n2</title>
<path fill="none" stroke="black" d="M199.44,-149.53C199.44,-143.59 199.44,-136.88 199.44,-130.22"/>
<polygon fill="black" stroke="black" points="204.69,-130.3 199.44,-115.3 194.19,-130.3 204.69,-130.3"/>
</g>
<!-- n2&#45;&gt;nx0 -->
<g id="edge4" class="edge">
<title>n2&#45;&gt;nx0</title>
<path fill="none" stroke="black" d="M181.27,-82.28C161.77,-72.07 130.09,-55.48 104.06,-41.84"/>
<polygon fill="black" stroke="black" points="106.59,-37.24 90.86,-34.93 101.72,-46.54 106.59,-37.24"/>
</g>
<!-- n2&#45;&gt;nx1 -->
<g id="edge5" class="edge">
<title>n2&#45;&gt;nx1</title>
<path fill="none" stroke="black" d="M199.44,-71.91C199.44,-66 199.44,-59.36 199.44,-52.83"/>
<polygon fill="black" stroke="black" points="204.69,-52.9 199.44,-37.9 194.19,-52.9 204.69,-52.9"/>
</g>
<!-- n2&#45;&gt;nx2 -->
<g id="edge6" class="edge">
<title>n2&#45;&gt;nx2</title>
<path fill="none" stroke="black" d="M217.62,-82.28C237.12,-72.07 268.8,-55.48 294.83,-41.84"/>
<polygon fill="black" stroke="black" points="297.17,-46.54 308.03,-34.93 292.3,-37.24 297.17,-46.54"/>
</g>
</g>
</svg>
