<?xml version="1.0" encoding="UTF-8" standalone="no"?>
<!DOCTYPE svg PUBLIC "-//W3C//DTD SVG 1.1//EN"
 "http://www.w3.org/Graphics/SVG/1.1/DTD/svg11.dtd">
<!-- Generated by graphviz version 7.0.0 (0)
 -->
<!-- Title: G Pages: 1 -->
<svg width="295pt" height="498pt"
 viewBox="0.00 0.00 295.44 498.39" xmlns="http://www.w3.org/2000/svg" xmlns:xlink="http://www.w3.org/1999/xlink">
<g id="graph0" class="graph" transform="scale(1 1) rotate(0) translate(4 494.39)">
<title>G</title>
<polygon fill="white" stroke="none" points="-4,4 -4,-494.39 291.44,-494.39 291.44,4 -4,4"/>
<!-- uc -->
<g id="node1" class="node">
<title>uc</title>
<ellipse fill="white" stroke="white" cx="109.44" cy="-472.39" rx="67.69" ry="18"/>
<text text-anchor="middle" x="109.44" y="-468.69" font-family="Helvetica,Arial,sans-serif" font-size="14.00">user computer</text>
</g>
<!-- n0 -->
<g id="node2" class="node">
<title>n0</title>
<ellipse fill="white" stroke="white" cx="109.44" cy="-400.39" rx="55.79" ry="18"/>
<text text-anchor="middle" x="109.44" y="-396.69" font-family="Helvetica,Arial,sans-serif" font-size="14.00">entry guard</text>
</g>
<!-- uc&#45;&gt;n0 -->
<g id="edge1" class="edge">
<title>uc&#45;&gt;n0</title>
<path fill="none" stroke="black" stroke-dasharray="1,5" d="M109.44,-454.08C109.44,-446.79 109.44,-438.11 109.44,-429.92"/>
<polygon fill="black" stroke="black" points="112.94,-430 109.44,-420 105.94,-430 112.94,-430"/>
</g>
<!-- n1 -->
<g id="node6" class="node">
<title>n1</title>
<ellipse fill="grey" stroke="grey" cx="109.44" cy="-325.59" rx="20.6" ry="20.6"/>
<text text-anchor="middle" x="109.44" y="-321.89" font-family="Helvetica,Arial,sans-serif" font-size="14.00">n1</text>
</g>
<!-- n0&#45;&gt;n1 -->
<g id="edge2" class="edge">
<title>n0&#45;&gt;n1</title>
<path fill="none" stroke="black" d="M109.44,-382.13C109.44,-376.29 109.44,-369.53 109.44,-362.78"/>
<polygon fill="black" stroke="black" points="114.69,-363.06 109.44,-348.06 104.19,-363.06 114.69,-363.06"/>
</g>
<!-- nx0 -->
<g id="node3" class="node">
<title>nx0</title>
<ellipse fill="white" stroke="white" cx="155.44" cy="-18" rx="60.39" ry="18"/>
<text text-anchor="middle" x="155.44" y="-14.3" font-family="Helvetica,Arial,sans-serif" font-size="14.00">destination 1</text>
</g>
<!-- nx1 -->
<g id="node4" class="node">
<title>nx1</title>
<ellipse fill="white" stroke="white" cx="60.44" cy="-170.39" rx="60.39" ry="18"/>
<text text-anchor="middle" x="60.44" y="-166.69" font-family="Helvetica,Arial,sans-serif" font-size="14.00">destination 2</text>
</g>
<!-- nx2 -->
<g id="node5" class="node">
<title>nx2</title>
<ellipse fill="white" stroke="white" cx="109.44" cy="-92.8" rx="60.39" ry="18"/>
<text text-anchor="middle" x="109.44" y="-89.1" font-family="Helvetica,Arial,sans-serif" font-size="14.00">destination 3</text>
</g>
<!-- n2 -->
<g id="node7" class="node">
<title>n2</title>
<ellipse fill="grey" stroke="grey" cx="109.44" cy="-247.99" rx="20.6" ry="20.6"/>
<text text-anchor="middle" x="109.44" y="-244.29" font-family="Helvetica,Arial,sans-serif" font-size="14.00">n2</text>
</g>
<!-- n1&#45;&gt;n2 -->
<g id="edge3" class="edge">
<title>n1&#45;&gt;n2</title>
<path fill="none" stroke="black" d="M109.44,-304.73C109.44,-298.78 109.44,-292.07 109.44,-285.41"/>
<polygon fill="black" stroke="black" points="114.69,-285.5 109.44,-270.5 104.19,-285.5 114.69,-285.5"/>
</g>
<!-- n2&#45;&gt;nx1 -->
<g id="edge7" class="edge">
<title>n2&#45;&gt;nx1</title>
<path fill="none" stroke="black" d="M98.57,-230.21C93.22,-221.95 86.59,-211.73 80.37,-202.13"/>
<polygon fill="black" stroke="black" points="84.85,-199.39 72.28,-189.66 76.03,-205.1 84.85,-199.39"/>
</g>
<!-- n3 -->
<g id="node8" class="node">
<title>n3</title>
<ellipse fill="grey" stroke="grey" cx="159.44" cy="-170.39" rx="20.6" ry="20.6"/>
<text text-anchor="middle" x="159.44" y="-166.69" font-family="Helvetica,Arial,sans-serif" font-size="14.00">n3</text>
</g>
<!-- n2&#45;&gt;n3 -->
<g id="edge4" class="edge">
<title>n2&#45;&gt;n3</title>
<path fill="none" stroke="black" d="M120.54,-230.21C126.11,-221.8 133.02,-211.34 139.47,-201.59"/>
<polygon fill="black" stroke="black" points="143.65,-204.79 147.54,-189.39 134.89,-199 143.65,-204.79"/>
</g>
<!-- n3&#45;&gt;nx2 -->
<g id="edge8" class="edge">
<title>n3&#45;&gt;nx2</title>
<path fill="none" stroke="black" d="M148.35,-152.62C142.88,-144.36 136.12,-134.13 129.77,-124.53"/>
<polygon fill="black" stroke="black" points="134.17,-121.67 121.52,-112.05 125.41,-127.46 134.17,-121.67"/>
</g>
<!-- n4 -->
<g id="node9" class="node">
<title>n4</title>
<ellipse fill="grey" stroke="grey" cx="208.44" cy="-92.8" rx="20.6" ry="20.6"/>
<text text-anchor="middle" x="208.44" y="-89.1" font-family="Helvetica,Arial,sans-serif" font-size="14.00">n4</text>
</g>
<!-- n3&#45;&gt;n4 -->
<g id="edge5" class="edge">
<title>n3&#45;&gt;n4</title>
<path fill="none" stroke="black" d="M170.32,-152.62C175.71,-144.3 182.4,-133.99 188.65,-124.33"/>
<polygon fill="black" stroke="black" points="193.02,-127.24 196.78,-111.8 184.21,-121.53 193.02,-127.24"/>
</g>
<!-- n4&#45;&gt;nx0 -->
<g id="edge6" class="edge">
<title>n4&#45;&gt;nx0</title>
<path fill="none" stroke="black" d="M196.68,-75.64C190.97,-67.8 183.92,-58.11 177.28,-48.99"/>
<polygon fill="black" stroke="black" points="181.69,-46.13 168.62,-37.09 173.2,-52.31 181.69,-46.13"/>
</g>
<!-- nx3 -->
<g id="node10" class="node">
<title>nx3</title>
<ellipse fill="white" stroke="white" cx="260.44" cy="-18" rx="27" ry="18"/>
<text text-anchor="middle" x="260.44" y="-14.3" font-family="Helvetica,Arial,sans-serif" font-size="14.00">nx3</text>
</g>
<!-- n4&#45;&gt;nx3 -->
<g id="edge9" class="edge">
<title>n4&#45;&gt;nx3</title>
<path fill="none" stroke="black" d="M219.99,-75.64C225.79,-67.52 233,-57.43 239.72,-48.02"/>
<polygon fill="black" stroke="black" points="243.97,-51.1 248.41,-35.84 235.42,-45 243.97,-51.1"/>
</g>
</g>
</svg>
