<?xml version="1.0" encoding="UTF-8" standalone="no"?>
<!DOCTYPE svg PUBLIC "-//W3C//DTD SVG 1.1//EN"
 "http://www.w3.org/Graphics/SVG/1.1/DTD/svg11.dtd">
<!-- Generated by graphviz version 2.50.0 (0)
 -->
<!-- Title: G Pages: 1 -->
<svg width="502pt" height="250pt"
 viewBox="0.00 0.00 502.00 250.00" xmlns="http://www.w3.org/2000/svg" xmlns:xlink="http://www.w3.org/1999/xlink">
<g id="graph0" class="graph" transform="scale(1 1) rotate(0) translate(4 246)">
<title>G</title>
<polygon fill="white" stroke="transparent" points="-4,4 -4,-246 498,-246 498,4 -4,4"/>
<g id="clust1" class="cluster">
<title>cluster_inputs</title>
<polygon fill="none" stroke="black" points="205,-182 205,-234 384,-234 384,-182 205,-182"/>
</g>
<g id="clust2" class="cluster">
<title>cluster_outputs</title>
<polygon fill="none" stroke="black" points="8,-8 8,-60 486,-60 486,-8 8,-8"/>
</g>
<g id="clust3" class="cluster">
<title>cluster_reissuance</title>
<polygon fill="none" stroke="black" points="212,-95 212,-147 282,-147 282,-95 212,-95"/>
</g>
<!-- 0 -->
<g id="node1" class="node">
<title>0</title>
<ellipse fill="none" stroke="black" cx="249" cy="-208" rx="36.29" ry="18"/>
<text text-anchor="middle" x="249" y="-204.3" font-family="Times,serif" font-size="14.00">7s 0b</text>
</g>
<!-- 5 -->
<g id="node6" class="node">
<title>5</title>
<ellipse fill="none" stroke="black" cx="55" cy="-34" rx="38.99" ry="18"/>
<text text-anchor="middle" x="55" y="-30.3" font-family="Times,serif" font-size="14.00">&#45;1s 0b</text>
</g>
<!-- 0&#45;&gt;5 -->
<g id="edge2" class="edge">
<title>0&#45;&gt;5</title>
<path fill="none" stroke="blue" d="M232.12,-192.04C197.88,-161.68 120.11,-92.73 79.99,-57.15"/>
<polygon fill="blue" stroke="blue" points="82.06,-54.31 72.25,-50.3 77.41,-59.55 82.06,-54.31"/>
<text text-anchor="middle" x="188.5" y="-117.3" font-family="Times,serif" font-size="14.00" fill="blue">1s</text>
</g>
<!-- 7 -->
<g id="node8" class="node">
<title>7</title>
<ellipse fill="none" stroke="black" cx="247" cy="-121" rx="27" ry="18"/>
</g>
<!-- 0&#45;&gt;7 -->
<g id="edge1" class="edge">
<title>0&#45;&gt;7</title>
<path fill="none" stroke="blue" d="M248.6,-189.8C248.32,-178.16 247.95,-162.55 247.64,-149.24"/>
<polygon fill="blue" stroke="blue" points="251.14,-149.09 247.4,-139.18 244.14,-149.26 251.14,-149.09"/>
<text text-anchor="middle" x="256.5" y="-160.8" font-family="Times,serif" font-size="14.00" fill="blue">6s</text>
</g>
<!-- 1 -->
<g id="node2" class="node">
<title>1</title>
<ellipse fill="none" stroke="black" cx="340" cy="-208" rx="36.29" ry="18"/>
<text text-anchor="middle" x="340" y="-204.3" font-family="Times,serif" font-size="14.00">3s 0b</text>
</g>
<!-- 4 -->
<g id="node5" class="node">
<title>4</title>
<ellipse fill="none" stroke="black" cx="343" cy="-34" rx="38.99" ry="18"/>
<text text-anchor="middle" x="343" y="-30.3" font-family="Times,serif" font-size="14.00">&#45;2s 0b</text>
</g>
<!-- 1&#45;&gt;4 -->
<g id="edge5" class="edge">
<title>1&#45;&gt;4</title>
<path fill="none" stroke="blue" d="M340.3,-189.88C340.82,-160 341.9,-98.11 342.52,-62.27"/>
<polygon fill="blue" stroke="blue" points="346.03,-62.11 342.7,-52.05 339.03,-61.99 346.03,-62.11"/>
<text text-anchor="middle" x="349.5" y="-117.3" font-family="Times,serif" font-size="14.00" fill="blue">2s</text>
</g>
<!-- 6 -->
<g id="node7" class="node">
<title>6</title>
<ellipse fill="none" stroke="black" cx="439" cy="-34" rx="38.99" ry="18"/>
<text text-anchor="middle" x="439" y="-30.3" font-family="Times,serif" font-size="14.00">&#45;1s 0b</text>
</g>
<!-- 1&#45;&gt;6 -->
<g id="edge6" class="edge">
<title>1&#45;&gt;6</title>
<path fill="none" stroke="blue" d="M349.49,-190.51C366.82,-160.41 403.68,-96.37 424.28,-60.57"/>
<polygon fill="blue" stroke="blue" points="427.44,-62.11 429.39,-51.69 421.37,-58.62 427.44,-62.11"/>
<text text-anchor="middle" x="412.5" y="-117.3" font-family="Times,serif" font-size="14.00" fill="blue">1s</text>
</g>
<!-- 2 -->
<g id="node3" class="node">
<title>2</title>
<ellipse fill="none" stroke="black" cx="151" cy="-34" rx="38.99" ry="18"/>
<text text-anchor="middle" x="151" y="-30.3" font-family="Times,serif" font-size="14.00">&#45;3s 0b</text>
</g>
<!-- 3 -->
<g id="node4" class="node">
<title>3</title>
<ellipse fill="none" stroke="black" cx="247" cy="-34" rx="38.99" ry="18"/>
<text text-anchor="middle" x="247" y="-30.3" font-family="Times,serif" font-size="14.00">&#45;3s 0b</text>
</g>
<!-- 7&#45;&gt;2 -->
<g id="edge3" class="edge">
<title>7&#45;&gt;2</title>
<path fill="none" stroke="blue" d="M231.15,-105.96C216.09,-92.63 193.23,-72.39 175.77,-56.93"/>
<polygon fill="blue" stroke="blue" points="177.98,-54.21 168.17,-50.21 173.34,-59.46 177.98,-54.21"/>
<text text-anchor="middle" x="212.5" y="-73.8" font-family="Times,serif" font-size="14.00" fill="blue">3s</text>
</g>
<!-- 7&#45;&gt;3 -->
<g id="edge4" class="edge">
<title>7&#45;&gt;3</title>
<path fill="none" stroke="blue" d="M247,-102.8C247,-91.16 247,-75.55 247,-62.24"/>
<polygon fill="blue" stroke="blue" points="250.5,-62.18 247,-52.18 243.5,-62.18 250.5,-62.18"/>
<text text-anchor="middle" x="255.5" y="-73.8" font-family="Times,serif" font-size="14.00" fill="blue">3s</text>
</g>
</g>
</svg>
