<?xml version="1.0" encoding="UTF-8" standalone="no"?>
<!DOCTYPE svg PUBLIC "-//W3C//DTD SVG 1.1//EN"
 "http://www.w3.org/Graphics/SVG/1.1/DTD/svg11.dtd">
<!-- Generated by graphviz version 2.50.0 (0)
 -->
<!-- Title: G Pages: 1 -->
<svg width="180pt" height="277pt"
 viewBox="0.00 0.00 180.18 277.00" xmlns="http://www.w3.org/2000/svg" xmlns:xlink="http://www.w3.org/1999/xlink">
<g id="graph0" class="graph" transform="scale(1 1) rotate(0) translate(4 273)">
<title>G</title>
<polygon fill="white" stroke="transparent" points="-4,4 -4,-273 176.18,-273 176.18,4 -4,4"/>
<!-- Wallet 1 -->
<g id="node1" class="node">
<title>Wallet 1</title>
<ellipse fill="none" stroke="black" cx="61.94" cy="-251" rx="42.49" ry="18"/>
<text text-anchor="middle" x="61.94" y="-247.3" font-family="Helvetica,Arial,sans-serif" font-size="14.00">Wallet 1</text>
</g>
<!-- Coordinator -->
<g id="node2" class="node">
<title>Coordinator</title>
<ellipse fill="none" stroke="black" cx="59.94" cy="-18" rx="56.59" ry="18"/>
<text text-anchor="middle" x="59.94" y="-14.3" font-family="Helvetica,Arial,sans-serif" font-size="14.00">Coordinator</text>
</g>
<!-- Wallet 1&#45;&gt;Coordinator -->
<g id="edge1" class="edge">
<title>Wallet 1&#45;&gt;Coordinator</title>
<path fill="none" stroke="black" stroke-dasharray="5,2" d="M34.87,-227.93C25.74,-219.01 16.48,-207.98 10.94,-196 -2,-168.07 -2.25,-156.93 4.94,-127 12.16,-96.88 29.27,-65.69 42.5,-44.61"/>
<polygon fill="black" stroke="black" points="32.69,-230.69 42.41,-234.91 37.45,-225.55 32.69,-230.69"/>
<polygon fill="black" stroke="black" points="45.6,-46.26 48.07,-35.96 39.71,-42.47 45.6,-46.26"/>
<text text-anchor="middle" x="30.94" y="-130.8" font-family="Times,serif" font-size="14.00">satoshi</text>
</g>
<!-- Wallet 2 -->
<g id="node3" class="node">
<title>Wallet 2</title>
<ellipse fill="none" stroke="black" cx="61.94" cy="-178" rx="42.49" ry="18"/>
<text text-anchor="middle" x="61.94" y="-174.3" font-family="Helvetica,Arial,sans-serif" font-size="14.00">Wallet 2</text>
</g>
<!-- Wallet 1&#45;&gt;Wallet 2 -->
<g id="edge2" class="edge">
<title>Wallet 1&#45;&gt;Wallet 2</title>
<path fill="none" stroke="black" d="M61.94,-222.75C61.94,-217.28 61.94,-211.52 61.94,-206.05"/>
<polygon fill="black" stroke="black" points="58.44,-222.81 61.94,-232.81 65.44,-222.81 58.44,-222.81"/>
<polygon fill="black" stroke="black" points="65.44,-206.03 61.94,-196.03 58.44,-206.03 65.44,-206.03"/>
</g>
<!-- Wallet 3 -->
<g id="node4" class="node">
<title>Wallet 3</title>
<ellipse fill="none" stroke="black" cx="129.94" cy="-91" rx="42.49" ry="18"/>
<text text-anchor="middle" x="129.94" y="-87.3" font-family="Helvetica,Arial,sans-serif" font-size="14.00">Wallet 3</text>
</g>
<!-- Wallet 1&#45;&gt;Wallet 3 -->
<g id="edge3" class="edge">
<title>Wallet 1&#45;&gt;Wallet 3</title>
<path fill="none" stroke="black" d="M88.67,-227.78C97.76,-218.83 107.08,-207.83 112.94,-196 124.87,-171.87 128.7,-141.12 129.8,-119.33"/>
<polygon fill="black" stroke="black" points="86.1,-225.39 81.18,-234.78 90.88,-230.51 86.1,-225.39"/>
<polygon fill="black" stroke="black" points="133.31,-119.25 130.15,-109.13 126.31,-119.01 133.31,-119.25"/>
</g>
<!-- Wallet 2&#45;&gt;Coordinator -->
<g id="edge5" class="edge">
<title>Wallet 2&#45;&gt;Coordinator</title>
<path fill="none" stroke="black" d="M61.59,-149.59C61.22,-120.67 60.65,-75.33 60.28,-46.4"/>
<polygon fill="black" stroke="black" points="58.09,-149.84 61.72,-159.79 65.09,-149.75 58.09,-149.84"/>
<polygon fill="black" stroke="black" points="63.78,-46.14 60.15,-36.19 56.78,-46.23 63.78,-46.14"/>
</g>
<!-- Wallet 2&#45;&gt;Wallet 3 -->
<g id="edge4" class="edge">
<title>Wallet 2&#45;&gt;Wallet 3</title>
<path fill="none" stroke="black" d="M81.38,-152.69C90.54,-141.25 101.42,-127.64 110.57,-116.21"/>
<polygon fill="black" stroke="black" points="78.56,-150.62 75.05,-160.61 84.03,-154.99 78.56,-150.62"/>
<polygon fill="black" stroke="black" points="113.35,-118.33 116.86,-108.34 107.88,-113.96 113.35,-118.33"/>
</g>
<!-- Wallet 3&#45;&gt;Coordinator -->
<g id="edge6" class="edge">
<title>Wallet 3&#45;&gt;Coordinator</title>
<path fill="none" stroke="black" d="M107.1,-66.84C99.59,-59.22 91.23,-50.74 83.65,-43.06"/>
<polygon fill="black" stroke="black" points="104.89,-69.58 114.4,-74.24 109.87,-64.66 104.89,-69.58"/>
<polygon fill="black" stroke="black" points="85.92,-40.37 76.4,-35.7 80.93,-45.28 85.92,-40.37"/>
</g>
</g>
</svg>
