<?xml version="1.0" encoding="UTF-8" standalone="no"?>
<!DOCTYPE svg PUBLIC "-//W3C//DTD SVG 1.1//EN"
 "http://www.w3.org/Graphics/SVG/1.1/DTD/svg11.dtd">
<!-- Generated by graphviz version 2.50.0 (0)
 -->
<!-- Title: G Pages: 1 -->
<svg width="151pt" height="332pt"
 viewBox="0.00 0.00 150.97 332.00" xmlns="http://www.w3.org/2000/svg" xmlns:xlink="http://www.w3.org/1999/xlink">
<g id="graph0" class="graph" transform="scale(1 1) rotate(0) translate(4 328)">
<title>G</title>
<polygon fill="white" stroke="transparent" points="-4,4 -4,-328 146.97,-328 146.97,4 -4,4"/>
<!-- a1 -->
<g id="node1" class="node">
<title>a1</title>
<ellipse fill="none" stroke="black" cx="71.6" cy="-306" rx="27" ry="18"/>
<text text-anchor="middle" x="71.6" y="-302.3" font-family="Helvetica,Arial,sans-serif" font-size="14.00">a1</text>
</g>
<!-- a2 -->
<g id="node2" class="node">
<title>a2</title>
<ellipse fill="none" stroke="black" cx="44.6" cy="-162" rx="27" ry="18"/>
<text text-anchor="middle" x="44.6" y="-158.3" font-family="Helvetica,Arial,sans-serif" font-size="14.00">a2</text>
</g>
<!-- a1&#45;&gt;a2 -->
<g id="edge1" class="edge">
<title>a1&#45;&gt;a2</title>
<path fill="none" stroke="black" d="M66.4,-277.68C61.61,-252.49 54.54,-215.3 49.76,-190.16"/>
<polygon fill="black" stroke="black" points="63.03,-278.7 68.34,-287.87 69.91,-277.39 63.03,-278.7"/>
<polygon fill="black" stroke="black" points="53.17,-189.36 47.86,-180.19 46.29,-190.67 53.17,-189.36"/>
</g>
<!-- a3 -->
<g id="node3" class="node">
<title>a3</title>
<ellipse fill="none" stroke="black" cx="99.6" cy="-234" rx="27" ry="18"/>
<text text-anchor="middle" x="99.6" y="-230.3" font-family="Helvetica,Arial,sans-serif" font-size="14.00">a3</text>
</g>
<!-- a1&#45;&gt;a3 -->
<g id="edge2" class="edge">
<title>a1&#45;&gt;a3</title>
<path fill="none" stroke="black" d="M82.03,-278.91C84.39,-273.02 86.89,-266.77 89.24,-260.89"/>
<polygon fill="black" stroke="black" points="78.7,-277.83 78.23,-288.41 85.19,-280.43 78.7,-277.83"/>
<polygon fill="black" stroke="black" points="92.54,-262.05 93.01,-251.47 86.04,-259.45 92.54,-262.05"/>
</g>
<!-- a4 -->
<g id="node4" class="node">
<title>a4</title>
<ellipse fill="none" stroke="black" cx="82.6" cy="-90" rx="27" ry="18"/>
<text text-anchor="middle" x="82.6" y="-86.3" font-family="Helvetica,Arial,sans-serif" font-size="14.00">a4</text>
</g>
<!-- a1&#45;&gt;a4 -->
<g id="edge3" class="edge">
<title>a1&#45;&gt;a4</title>
<path fill="none" stroke="black" d="M100.98,-288.86C114.16,-279.9 128.34,-267.42 135.6,-252 157.69,-205.02 124.16,-146.33 101.18,-114.39"/>
<polygon fill="black" stroke="black" points="99.1,-285.91 92.55,-294.24 102.86,-291.81 99.1,-285.91"/>
<polygon fill="black" stroke="black" points="103.81,-112.05 95.04,-106.11 98.19,-116.23 103.81,-112.05"/>
</g>
<!-- coordinator -->
<g id="node5" class="node">
<title>coordinator</title>
<ellipse fill="none" stroke="black" cx="54.6" cy="-18" rx="54.69" ry="18"/>
<text text-anchor="middle" x="54.6" y="-14.3" font-family="Helvetica,Arial,sans-serif" font-size="14.00">coordinator</text>
</g>
<!-- a1&#45;&gt;coordinator -->
<g id="edge4" class="edge">
<title>a1&#45;&gt;coordinator</title>
<path fill="none" stroke="black" d="M55.08,-280.83C39.59,-256.57 17.52,-217.53 8.6,-180 -2.86,-131.82 21.31,-76.46 38.75,-44.81"/>
<polygon fill="black" stroke="black" points="52.26,-282.9 60.66,-289.36 58.12,-279.08 52.26,-282.9"/>
<polygon fill="black" stroke="black" points="41.99,-46.21 43.91,-35.79 35.91,-42.74 41.99,-46.21"/>
</g>
<!-- a2&#45;&gt;a4 -->
<g id="edge5" class="edge">
<title>a2&#45;&gt;a4</title>
<path fill="none" stroke="black" d="M58.33,-135.7C61.8,-129.3 65.53,-122.44 69,-116.05"/>
<polygon fill="black" stroke="black" points="55.1,-134.31 53.41,-144.76 61.26,-137.65 55.1,-134.31"/>
<polygon fill="black" stroke="black" points="72.13,-117.61 73.83,-107.15 65.98,-114.27 72.13,-117.61"/>
</g>
<!-- a2&#45;&gt;coordinator -->
<g id="edge6" class="edge">
<title>a2&#45;&gt;coordinator</title>
<path fill="none" stroke="black" d="M44.31,-133.75C44.35,-116.11 44.81,-92.66 46.6,-72 47.33,-63.53 48.56,-54.35 49.83,-46.05"/>
<polygon fill="black" stroke="black" points="40.81,-133.91 44.33,-143.9 47.81,-133.89 40.81,-133.91"/>
<polygon fill="black" stroke="black" points="53.3,-46.55 51.45,-36.12 46.39,-45.43 53.3,-46.55"/>
</g>
<!-- a3&#45;&gt;a2 -->
<g id="edge9" class="edge">
<title>a3&#45;&gt;a2</title>
<path fill="none" stroke="black" d="M81.42,-209.87C75.41,-202.21 68.71,-193.69 62.7,-186.04"/>
<polygon fill="black" stroke="black" points="78.73,-212.11 87.66,-217.81 84.23,-207.79 78.73,-212.11"/>
<polygon fill="black" stroke="black" points="65.44,-183.86 56.51,-178.16 59.93,-188.18 65.44,-183.86"/>
</g>
<!-- a3&#45;&gt;a4 -->
<g id="edge8" class="edge">
<title>a3&#45;&gt;a4</title>
<path fill="none" stroke="black" d="M96.32,-205.68C93.31,-180.49 88.86,-143.3 85.85,-118.16"/>
<polygon fill="black" stroke="black" points="92.88,-206.36 97.54,-215.87 99.83,-205.53 92.88,-206.36"/>
<polygon fill="black" stroke="black" points="89.32,-117.7 84.65,-108.19 82.37,-118.53 89.32,-117.7"/>
</g>
<!-- a3&#45;&gt;coordinator -->
<g id="edge7" class="edge">
<title>a3&#45;&gt;coordinator</title>
<path fill="none" stroke="black" d="M110.81,-207.15C123.34,-174.16 139.33,-116.09 118.6,-72 112.53,-59.1 101.61,-48.26 90.49,-39.82"/>
<polygon fill="black" stroke="black" points="107.51,-205.96 107.07,-216.54 114.02,-208.54 107.51,-205.96"/>
<polygon fill="black" stroke="black" points="92.21,-36.75 82.02,-33.83 88.17,-42.46 92.21,-36.75"/>
</g>
<!-- a4&#45;&gt;coordinator -->
<g id="edge10" class="edge">
<title>a4&#45;&gt;coordinator</title>
<path fill="none" stroke="black" d="M72.22,-63.06C69.9,-57.26 67.44,-51.1 65.11,-45.29"/>
<polygon fill="black" stroke="black" points="69,-64.43 75.96,-72.41 75.5,-61.83 69,-64.43"/>
<polygon fill="black" stroke="black" points="68.34,-43.94 61.38,-35.96 61.84,-46.54 68.34,-43.94"/>
</g>
</g>
</svg>
