<?xml version="1.0" encoding="UTF-8" standalone="no"?>
<!DOCTYPE svg PUBLIC "-//W3C//DTD SVG 1.1//EN"
 "http://www.w3.org/Graphics/SVG/1.1/DTD/svg11.dtd">
<!-- Generated by graphviz version 7.0.0 (0)
 -->
<!-- Title: G Pages: 1 -->
<svg width="552pt" height="579pt"
 viewBox="0.00 0.00 551.79 579.48" xmlns="http://www.w3.org/2000/svg" xmlns:xlink="http://www.w3.org/1999/xlink">
<g id="graph0" class="graph" transform="scale(1 1) rotate(0) translate(4 575.48)">
<title>G</title>
<polygon fill="white" stroke="none" points="-4,4 -4,-575.48 547.79,-575.48 547.79,4 -4,4"/>
<!-- uc -->
<g id="node1" class="node">
<title>uc</title>
<ellipse fill="white" stroke="white" cx="199.44" cy="-546.14" rx="67.69" ry="18"/>
<text text-anchor="middle" x="199.44" y="-542.44" font-family="Helvetica,Arial,sans-serif" font-size="14.00">user computer</text>
</g>
<!-- n0 -->
<g id="node2" class="node">
<title>n0</title>
<ellipse fill="white" stroke="white" cx="199.44" cy="-466.79" rx="55.79" ry="18"/>
<text text-anchor="middle" x="199.44" y="-463.09" font-family="Helvetica,Arial,sans-serif" font-size="14.00">entry guard</text>
</g>
<!-- uc&#45;&gt;n0 -->
<g id="edge1" class="edge">
<title>uc&#45;&gt;n0</title>
<path fill="none" stroke="black" stroke-dasharray="1,5" d="M199.44,-527.97C199.44,-518.72 199.44,-507.07 199.44,-496.48"/>
<polygon fill="black" stroke="black" points="202.94,-496.69 199.44,-486.69 195.94,-496.69 202.94,-496.69"/>
</g>
<!-- n1 -->
<g id="node6" class="node">
<title>n1</title>
<ellipse fill="grey" stroke="grey" cx="199.44" cy="-391.99" rx="20.6" ry="20.6"/>
<text text-anchor="middle" x="199.44" y="-388.29" font-family="Helvetica,Arial,sans-serif" font-size="14.00">n1</text>
</g>
<!-- n0&#45;&gt;n1 -->
<g id="edge2" class="edge">
<title>n0&#45;&gt;n1</title>
<path fill="none" stroke="black" d="M199.44,-448.54C199.44,-442.7 199.44,-435.94 199.44,-429.19"/>
<polygon fill="black" stroke="black" points="204.69,-429.47 199.44,-414.47 194.19,-429.47 204.69,-429.47"/>
</g>
<!-- nx0 -->
<g id="node3" class="node">
<title>nx0</title>
<ellipse fill="white" stroke="white" cx="345.44" cy="-546.14" rx="60.39" ry="18"/>
<text text-anchor="middle" x="345.44" y="-542.44" font-family="Helvetica,Arial,sans-serif" font-size="14.00">destination 1</text>
</g>
<!-- nx1 -->
<g id="node4" class="node">
<title>nx1</title>
<ellipse fill="white" stroke="white" cx="60.44" cy="-18" rx="60.39" ry="18"/>
<text text-anchor="middle" x="60.44" y="-14.3" font-family="Helvetica,Arial,sans-serif" font-size="14.00">destination 2</text>
</g>
<!-- nx2 -->
<g id="node5" class="node">
<title>nx2</title>
<ellipse fill="white" stroke="white" cx="199.44" cy="-18" rx="60.39" ry="18"/>
<text text-anchor="middle" x="199.44" y="-14.3" font-family="Helvetica,Arial,sans-serif" font-size="14.00">destination 3</text>
</g>
<!-- n2 -->
<g id="node7" class="node">
<title>n2</title>
<ellipse fill="grey" stroke="grey" cx="199.44" cy="-314.39" rx="20.6" ry="20.6"/>
<text text-anchor="middle" x="199.44" y="-310.69" font-family="Helvetica,Arial,sans-serif" font-size="14.00">n2</text>
</g>
<!-- n1&#45;&gt;n2 -->
<g id="edge3" class="edge">
<title>n1&#45;&gt;n2</title>
<path fill="none" stroke="black" d="M199.44,-371.13C199.44,-365.19 199.44,-358.47 199.44,-351.82"/>
<polygon fill="black" stroke="black" points="204.69,-351.9 199.44,-336.9 194.19,-351.9 204.69,-351.9"/>
</g>
<!-- n3 -->
<g id="node11" class="node">
<title>n3</title>
<ellipse fill="white" stroke="white" cx="199.44" cy="-239.6" rx="27" ry="18"/>
<text text-anchor="middle" x="199.44" y="-235.9" font-family="Helvetica,Arial,sans-serif" font-size="14.00">n3</text>
</g>
<!-- n2&#45;&gt;n3 -->
<g id="edge4" class="edge">
<title>n2&#45;&gt;n3</title>
<path fill="none" stroke="black" d="M199.44,-293.5C199.44,-287.6 199.44,-280.96 199.44,-274.43"/>
<polygon fill="black" stroke="black" points="204.69,-274.5 199.44,-259.5 194.19,-274.5 204.69,-274.5"/>
</g>
<!-- n5 -->
<g id="node8" class="node">
<title>n5</title>
<ellipse fill="grey" stroke="grey" cx="199.44" cy="-92.8" rx="20.6" ry="20.6"/>
<text text-anchor="middle" x="199.44" y="-89.1" font-family="Helvetica,Arial,sans-serif" font-size="14.00">n5</text>
</g>
<!-- n5&#45;&gt;nx1 -->
<g id="edge7" class="edge">
<title>n5&#45;&gt;nx1</title>
<path fill="none" stroke="black" d="M181.27,-82.28C161.77,-72.07 130.09,-55.48 104.06,-41.84"/>
<polygon fill="black" stroke="black" points="106.59,-37.24 90.86,-34.93 101.72,-46.54 106.59,-37.24"/>
</g>
<!-- n5&#45;&gt;nx2 -->
<g id="edge8" class="edge">
<title>n5&#45;&gt;nx2</title>
<path fill="none" stroke="black" d="M199.44,-71.91C199.44,-66 199.44,-59.36 199.44,-52.83"/>
<polygon fill="black" stroke="black" points="204.69,-52.9 199.44,-37.9 194.19,-52.9 204.69,-52.9"/>
</g>
<!-- nx3 -->
<g id="node13" class="node">
<title>nx3</title>
<ellipse fill="white" stroke="white" cx="304.44" cy="-18" rx="27" ry="18"/>
<text text-anchor="middle" x="304.44" y="-14.3" font-family="Helvetica,Arial,sans-serif" font-size="14.00">nx3</text>
</g>
<!-- n5&#45;&gt;nx3 -->
<g id="edge9" class="edge">
<title>n5&#45;&gt;nx3</title>
<path fill="none" stroke="black" d="M215.85,-80.42C231.11,-69.84 254.25,-53.8 273.06,-40.76"/>
<polygon fill="black" stroke="black" points="275.81,-45.24 285.15,-32.38 269.83,-36.61 275.81,-45.24"/>
</g>
<!-- n10 -->
<g id="node9" class="node">
<title>n10</title>
<ellipse fill="grey" stroke="grey" cx="449.44" cy="-546.14" rx="25.2" ry="25.2"/>
<text text-anchor="middle" x="449.44" y="-542.44" font-family="Helvetica,Arial,sans-serif" font-size="14.00">n10</text>
</g>
<!-- n11 -->
<g id="node10" class="node">
<title>n11</title>
<ellipse fill="grey" stroke="grey" cx="518.44" cy="-546.14" rx="25.2" ry="25.2"/>
<text text-anchor="middle" x="518.44" y="-542.44" font-family="Helvetica,Arial,sans-serif" font-size="14.00">n11</text>
</g>
<!-- n4 -->
<g id="node12" class="node">
<title>n4</title>
<ellipse fill="white" stroke="white" cx="199.44" cy="-167.6" rx="27" ry="18"/>
<text text-anchor="middle" x="199.44" y="-163.9" font-family="Helvetica,Arial,sans-serif" font-size="14.00">n4</text>
</g>
<!-- n3&#45;&gt;n4 -->
<g id="edge5" class="edge">
<title>n3&#45;&gt;n4</title>
<path fill="none" stroke="black" d="M199.44,-221.29C199.44,-215.44 199.44,-208.7 199.44,-202.03"/>
<polygon fill="black" stroke="black" points="204.69,-202.21 199.44,-187.21 194.19,-202.21 204.69,-202.21"/>
</g>
<!-- n4&#45;&gt;n5 -->
<g id="edge6" class="edge">
<title>n4&#45;&gt;n5</title>
<path fill="none" stroke="black" d="M199.44,-149.34C199.44,-143.5 199.44,-136.74 199.44,-129.99"/>
<polygon fill="black" stroke="black" points="204.69,-130.27 199.44,-115.27 194.19,-130.27 204.69,-130.27"/>
</g>
</g>
</svg>
