<?xml version="1.0" encoding="UTF-8" standalone="no"?>
<!DOCTYPE svg PUBLIC "-//W3C//DTD SVG 1.1//EN"
 "http://www.w3.org/Graphics/SVG/1.1/DTD/svg11.dtd">
<!-- Generated by graphviz version 2.50.0 (0)
 -->
<!-- Title: G Pages: 1 -->
<svg width="257pt" height="188pt"
 viewBox="0.00 0.00 256.58 188.00" xmlns="http://www.w3.org/2000/svg" xmlns:xlink="http://www.w3.org/1999/xlink">
<g id="graph0" class="graph" transform="scale(1 1) rotate(0) translate(4 184)">
<title>G</title>
<polygon fill="white" stroke="transparent" points="-4,4 -4,-184 252.58,-184 252.58,4 -4,4"/>
<!-- client1 -->
<g id="node1" class="node">
<title>client1</title>
<ellipse fill="none" stroke="black" cx="156.29" cy="-162" rx="92.08" ry="18"/>
<text text-anchor="middle" x="156.29" y="-158.3" font-family="Helvetica,Arial,sans-serif" font-size="14.00">client1 / coordinator1</text>
</g>
<!-- client2 -->
<g id="node2" class="node">
<title>client2</title>
<ellipse fill="none" stroke="black" cx="92.29" cy="-90" rx="92.08" ry="18"/>
<text text-anchor="middle" x="92.29" y="-86.3" font-family="Helvetica,Arial,sans-serif" font-size="14.00">client2 / coordinator2</text>
</g>
<!-- client1&#45;&gt;client2 -->
<g id="edge1" class="edge">
<title>client1&#45;&gt;client2</title>
<path fill="none" stroke="black" d="M135.28,-144.41C126.58,-135.91 116.73,-125.37 108.58,-115.91"/>
<polygon fill="black" stroke="black" points="111.02,-113.38 101.92,-107.96 105.65,-117.87 111.02,-113.38"/>
</g>
<!-- client3 -->
<g id="node3" class="node">
<title>client3</title>
<ellipse fill="none" stroke="black" cx="156.29" cy="-18" rx="92.08" ry="18"/>
<text text-anchor="middle" x="156.29" y="-14.3" font-family="Helvetica,Arial,sans-serif" font-size="14.00">client3 / coordinator3</text>
</g>
<!-- client1&#45;&gt;client3 -->
<g id="edge5" class="edge">
<title>client1&#45;&gt;client3</title>
<path fill="none" stroke="black" d="M164.35,-143.85C171.31,-134.12 180.12,-121.27 184.29,-108 189.09,-92.74 189.09,-87.26 184.29,-72 181.23,-62.25 175.66,-52.73 170.16,-44.51"/>
<polygon fill="black" stroke="black" points="172.93,-42.37 164.35,-36.15 167.19,-46.36 172.93,-42.37"/>
</g>
<!-- client2&#45;&gt;client1 -->
<g id="edge4" class="edge">
<title>client2&#45;&gt;client1</title>
<path fill="none" stroke="black" d="M113.5,-107.79C122.18,-116.28 131.96,-126.75 140.06,-136.15"/>
<polygon fill="black" stroke="black" points="137.58,-138.63 146.68,-144.05 142.94,-134.14 137.58,-138.63"/>
</g>
<!-- client2&#45;&gt;client3 -->
<g id="edge2" class="edge">
<title>client2&#45;&gt;client3</title>
<path fill="none" stroke="black" d="M101.91,-72.05C108.92,-63.37 118.54,-52.64 127.79,-43.11"/>
<polygon fill="black" stroke="black" points="130.51,-45.35 135.08,-35.79 125.55,-40.41 130.51,-45.35"/>
</g>
<!-- client3&#45;&gt;client1 -->
<g id="edge6" class="edge">
<title>client3&#45;&gt;client1</title>
<path fill="none" stroke="black" d="M179.87,-35.69C189.02,-45.46 198.05,-58.51 202.29,-72 207.09,-87.26 207.09,-92.74 202.29,-108 199.08,-118.22 193.11,-128.19 186.43,-136.68"/>
<polygon fill="black" stroke="black" points="183.73,-134.45 179.87,-144.31 189.04,-139.01 183.73,-134.45"/>
</g>
<!-- client3&#45;&gt;client2 -->
<g id="edge3" class="edge">
<title>client3&#45;&gt;client2</title>
<path fill="none" stroke="black" d="M146.67,-35.96C139.61,-44.69 129.92,-55.49 120.62,-65.06"/>
<polygon fill="black" stroke="black" points="117.88,-62.86 113.3,-72.41 122.84,-67.8 117.88,-62.86"/>
</g>
</g>
</svg>
