<?xml version="1.0" encoding="UTF-8" standalone="no"?>
<!DOCTYPE svg PUBLIC "-//W3C//DTD SVG 1.1//EN"
 "http://www.w3.org/Graphics/SVG/1.1/DTD/svg11.dtd">
<!-- Generated by graphviz version 2.50.0 (0)
 -->
<!-- Title: G Pages: 1 -->
<svg width="502pt" height="250pt"
 viewBox="0.00 0.00 502.00 250.00" xmlns="http://www.w3.org/2000/svg" xmlns:xlink="http://www.w3.org/1999/xlink">
<g id="graph0" class="graph" transform="scale(1 1) rotate(0) translate(4 246)">
<title>G</title>
<polygon fill="white" stroke="transparent" points="-4,4 -4,-246 498,-246 498,4 -4,4"/>
<g id="clust1" class="cluster">
<title>cluster_inputs</title>
<polygon fill="none" stroke="black" points="159,-182 159,-234 338,-234 338,-182 159,-182"/>
</g>
<g id="clust2" class="cluster">
<title>cluster_reissuance</title>
<polygon fill="none" stroke="black" points="140,-95 140,-147 282,-147 282,-95 140,-95"/>
</g>
<g id="clust3" class="cluster">
<title>cluster_outputs</title>
<polygon fill="none" stroke="black" points="8,-8 8,-60 486,-60 486,-8 8,-8"/>
</g>
<!-- 0 -->
<g id="node1" class="node">
<title>0</title>
<ellipse fill="none" stroke="black" cx="294" cy="-208" rx="36.29" ry="18"/>
<text text-anchor="middle" x="294" y="-204.3" font-family="Times,serif" font-size="14.00">7s 0b</text>
</g>
<!-- 7 -->
<g id="node3" class="node">
<title>7</title>
<ellipse fill="none" stroke="black" cx="247" cy="-121" rx="27" ry="18"/>
</g>
<!-- 0&#45;&gt;7 -->
<g id="edge1" class="edge">
<title>0&#45;&gt;7</title>
<path fill="none" stroke="blue" d="M284.71,-190.21C277.93,-177.94 268.62,-161.1 260.95,-147.22"/>
<polygon fill="blue" stroke="blue" points="263.85,-145.24 255.95,-138.18 257.72,-148.63 263.85,-145.24"/>
<text text-anchor="middle" x="281.5" y="-160.8" font-family="Times,serif" font-size="14.00" fill="blue">5s</text>
</g>
<!-- 4 -->
<g id="node7" class="node">
<title>4</title>
<ellipse fill="none" stroke="black" cx="439" cy="-34" rx="38.99" ry="18"/>
<text text-anchor="middle" x="439" y="-30.3" font-family="Times,serif" font-size="14.00">&#45;2s 0b</text>
</g>
<!-- 0&#45;&gt;4 -->
<g id="edge4" class="edge">
<title>0&#45;&gt;4</title>
<path fill="none" stroke="blue" d="M307.38,-191.13C332.82,-160.95 388.32,-95.11 418.49,-59.33"/>
<polygon fill="blue" stroke="blue" points="421.46,-61.24 425.23,-51.34 416.11,-56.73 421.46,-61.24"/>
<text text-anchor="middle" x="395.5" y="-117.3" font-family="Times,serif" font-size="14.00" fill="blue">2s</text>
</g>
<!-- 1 -->
<g id="node2" class="node">
<title>1</title>
<ellipse fill="none" stroke="black" cx="203" cy="-208" rx="36.29" ry="18"/>
<text text-anchor="middle" x="203" y="-204.3" font-family="Times,serif" font-size="14.00">3s 0b</text>
</g>
<!-- 1&#45;&gt;7 -->
<g id="edge6" class="edge">
<title>1&#45;&gt;7</title>
<path fill="none" stroke="blue" d="M211.69,-190.21C218.04,-177.94 226.76,-161.1 233.94,-147.22"/>
<polygon fill="blue" stroke="blue" points="237.13,-148.67 238.62,-138.18 230.92,-145.45 237.13,-148.67"/>
<text text-anchor="middle" x="235.5" y="-160.8" font-family="Times,serif" font-size="14.00" fill="blue">1s</text>
</g>
<!-- 8 -->
<g id="node4" class="node">
<title>8</title>
<ellipse fill="none" stroke="black" cx="175" cy="-121" rx="27" ry="18"/>
</g>
<!-- 1&#45;&gt;8 -->
<g id="edge5" class="edge">
<title>1&#45;&gt;8</title>
<path fill="none" stroke="blue" d="M197.47,-190.21C193.56,-178.33 188.23,-162.17 183.75,-148.56"/>
<polygon fill="blue" stroke="blue" points="186.97,-147.16 180.52,-138.76 180.32,-149.35 186.97,-147.16"/>
<text text-anchor="middle" x="198.5" y="-160.8" font-family="Times,serif" font-size="14.00" fill="blue">2s</text>
</g>
<!-- 2 -->
<g id="node5" class="node">
<title>2</title>
<ellipse fill="none" stroke="black" cx="343" cy="-34" rx="38.99" ry="18"/>
<text text-anchor="middle" x="343" y="-30.3" font-family="Times,serif" font-size="14.00">&#45;3s 0b</text>
</g>
<!-- 7&#45;&gt;2 -->
<g id="edge2" class="edge">
<title>7&#45;&gt;2</title>
<path fill="none" stroke="blue" d="M260.94,-105.03C270.71,-94.8 284.24,-81.14 297,-70 302.61,-65.1 308.84,-60.1 314.85,-55.46"/>
<polygon fill="blue" stroke="blue" points="316.98,-58.24 322.84,-49.42 312.75,-52.66 316.98,-58.24"/>
<text text-anchor="middle" x="305.5" y="-73.8" font-family="Times,serif" font-size="14.00" fill="blue">3s</text>
</g>
<!-- 3 -->
<g id="node6" class="node">
<title>3</title>
<ellipse fill="none" stroke="black" cx="247" cy="-34" rx="38.99" ry="18"/>
<text text-anchor="middle" x="247" y="-30.3" font-family="Times,serif" font-size="14.00">&#45;3s 0b</text>
</g>
<!-- 7&#45;&gt;3 -->
<g id="edge3" class="edge">
<title>7&#45;&gt;3</title>
<path fill="none" stroke="blue" d="M247,-102.8C247,-91.16 247,-75.55 247,-62.24"/>
<polygon fill="blue" stroke="blue" points="250.5,-62.18 247,-52.18 243.5,-62.18 250.5,-62.18"/>
<text text-anchor="middle" x="255.5" y="-73.8" font-family="Times,serif" font-size="14.00" fill="blue">3s</text>
</g>
<!-- 5 -->
<g id="node8" class="node">
<title>5</title>
<ellipse fill="none" stroke="black" cx="151" cy="-34" rx="38.99" ry="18"/>
<text text-anchor="middle" x="151" y="-30.3" font-family="Times,serif" font-size="14.00">&#45;1s 0b</text>
</g>
<!-- 8&#45;&gt;5 -->
<g id="edge7" class="edge">
<title>8&#45;&gt;5</title>
<path fill="none" stroke="blue" d="M170.26,-103.21C166.93,-91.41 162.4,-75.38 158.57,-61.82"/>
<polygon fill="blue" stroke="blue" points="161.9,-60.72 155.81,-52.05 155.16,-62.62 161.9,-60.72"/>
<text text-anchor="middle" x="172.5" y="-73.8" font-family="Times,serif" font-size="14.00" fill="blue">1s</text>
</g>
<!-- 6 -->
<g id="node9" class="node">
<title>6</title>
<ellipse fill="none" stroke="black" cx="55" cy="-34" rx="38.99" ry="18"/>
<text text-anchor="middle" x="55" y="-30.3" font-family="Times,serif" font-size="14.00">&#45;1s 0b</text>
</g>
<!-- 8&#45;&gt;6 -->
<g id="edge8" class="edge">
<title>8&#45;&gt;6</title>
<path fill="none" stroke="blue" d="M157.03,-107.27C137.67,-93.56 106.57,-71.53 83.79,-55.39"/>
<polygon fill="blue" stroke="blue" points="85.69,-52.45 75.5,-49.52 81.64,-58.16 85.69,-52.45"/>
<text text-anchor="middle" x="130.5" y="-73.8" font-family="Times,serif" font-size="14.00" fill="blue">1s</text>
</g>
</g>
</svg>
