<?xml version="1.0" encoding="UTF-8" standalone="no"?>
<!DOCTYPE svg PUBLIC "-//W3C//DTD SVG 1.1//EN"
 "http://www.w3.org/Graphics/SVG/1.1/DTD/svg11.dtd">
<!-- Generated by graphviz version 2.50.0 (0)
 -->
<!-- Title: G Pages: 1 -->
<svg width="229pt" height="260pt"
 viewBox="0.00 0.00 228.62 260.00" xmlns="http://www.w3.org/2000/svg" xmlns:xlink="http://www.w3.org/1999/xlink">
<g id="graph0" class="graph" transform="scale(1 1) rotate(0) translate(4 256)">
<title>G</title>
<polygon fill="white" stroke="transparent" points="-4,4 -4,-256 224.62,-256 224.62,4 -4,4"/>
<!-- Wallet 1 -->
<g id="node1" class="node">
<title>Wallet 1</title>
<ellipse fill="none" stroke="black" cx="157.98" cy="-162" rx="42.49" ry="18"/>
<text text-anchor="middle" x="157.98" y="-158.3" font-family="Helvetica,Arial,sans-serif" font-size="14.00">Wallet 1</text>
</g>
<!-- Wallet 2 -->
<g id="node2" class="node">
<title>Wallet 2</title>
<ellipse fill="none" stroke="black" cx="71.98" cy="-90" rx="42.49" ry="18"/>
<text text-anchor="middle" x="71.98" y="-86.3" font-family="Helvetica,Arial,sans-serif" font-size="14.00">Wallet 2</text>
</g>
<!-- Wallet 1&#45;&gt;Wallet 2 -->
<g id="edge1" class="edge">
<title>Wallet 1&#45;&gt;Wallet 2</title>
<path fill="none" stroke="black" d="M131.45,-139.41C121.01,-130.91 109.05,-121.17 98.6,-112.67"/>
<polygon fill="black" stroke="black" points="129.35,-142.21 139.32,-145.81 133.77,-136.78 129.35,-142.21"/>
<polygon fill="black" stroke="black" points="100.57,-109.76 90.6,-106.16 96.15,-115.19 100.57,-109.76"/>
</g>
<!-- Coordinator -->
<g id="node3" class="node">
<title>Coordinator</title>
<ellipse fill="none" stroke="black" cx="157.98" cy="-18" rx="56.59" ry="18"/>
<text text-anchor="middle" x="157.98" y="-14.3" font-family="Helvetica,Arial,sans-serif" font-size="14.00">Coordinator</text>
</g>
<!-- Wallet 1&#45;&gt;Coordinator -->
<g id="edge2" class="edge">
<title>Wallet 1&#45;&gt;Coordinator</title>
<path fill="none" stroke="black" d="M157.98,-133.68C157.98,-108.6 157.98,-71.63 157.98,-46.49"/>
<polygon fill="black" stroke="black" points="154.48,-133.87 157.98,-143.87 161.48,-133.87 154.48,-133.87"/>
<polygon fill="black" stroke="black" points="161.48,-46.19 157.98,-36.19 154.48,-46.19 161.48,-46.19"/>
</g>
<!-- Wallet 2&#45;&gt;Coordinator -->
<g id="edge3" class="edge">
<title>Wallet 2&#45;&gt;Coordinator</title>
<path fill="none" stroke="black" d="M98.65,-67.3C108.72,-59.1 120.19,-49.76 130.35,-41.49"/>
<polygon fill="black" stroke="black" points="96.19,-64.78 90.64,-73.81 100.61,-70.21 96.19,-64.78"/>
<polygon fill="black" stroke="black" points="132.61,-44.16 138.16,-35.13 128.19,-38.73 132.61,-44.16"/>
</g>
<!-- Wallet 3 -->
<g id="node4" class="node">
<title>Wallet 3</title>
<ellipse fill="none" stroke="black" cx="55.98" cy="-234" rx="42.49" ry="18"/>
<text text-anchor="middle" x="55.98" y="-230.3" font-family="Helvetica,Arial,sans-serif" font-size="14.00">Wallet 3</text>
</g>
<!-- Wallet 3&#45;&gt;Wallet 2 -->
<g id="edge6" class="edge">
<title>Wallet 3&#45;&gt;Wallet 2</title>
<path fill="none" stroke="black" d="M27.77,-211.34C18.72,-202.69 9.79,-191.94 4.98,-180 -1,-165.16 -1.99,-158.4 4.98,-144 11.81,-129.9 24.4,-118.41 36.85,-109.78"/>
<polygon fill="black" stroke="black" points="25.54,-214.03 35.33,-218.09 30.2,-208.82 25.54,-214.03"/>
<polygon fill="black" stroke="black" points="38.88,-112.64 45.37,-104.27 35.07,-106.76 38.88,-112.64"/>
</g>
<!-- Wallet 3&#45;&gt;Coordinator -->
<g id="edge4" class="edge">
<title>Wallet 3&#45;&gt;Coordinator</title>
<path fill="none" stroke="black" d="M107.91,-229.93C142.72,-224.85 186.2,-211.99 208.98,-180 238.95,-137.9 203.48,-77.46 178.47,-43.88"/>
<polygon fill="black" stroke="black" points="107.36,-226.47 97.89,-231.22 108.25,-233.42 107.36,-226.47"/>
<polygon fill="black" stroke="black" points="180.94,-41.35 172.07,-35.56 175.39,-45.62 180.94,-41.35"/>
</g>
<!-- Wallet 4 -->
<g id="node5" class="node">
<title>Wallet 4</title>
<ellipse fill="none" stroke="black" cx="55.98" cy="-162" rx="42.49" ry="18"/>
<text text-anchor="middle" x="55.98" y="-158.3" font-family="Helvetica,Arial,sans-serif" font-size="14.00">Wallet 4</text>
</g>
<!-- Wallet 3&#45;&gt;Wallet 4 -->
<g id="edge5" class="edge">
<title>Wallet 3&#45;&gt;Wallet 4</title>
<path fill="none" stroke="black" d="M55.98,-205.67C55.98,-200.69 55.98,-195.49 55.98,-190.51"/>
<polygon fill="black" stroke="black" points="52.48,-205.7 55.98,-215.7 59.48,-205.7 52.48,-205.7"/>
<polygon fill="black" stroke="black" points="59.48,-190.1 55.98,-180.1 52.48,-190.1 59.48,-190.1"/>
</g>
<!-- Wallet 4&#45;&gt;Wallet 2 -->
<g id="edge7" class="edge">
<title>Wallet 4&#45;&gt;Wallet 2</title>
<path fill="none" stroke="black" d="M62.09,-134.29C63.3,-128.97 64.58,-123.39 65.8,-118.06"/>
<polygon fill="black" stroke="black" points="58.67,-133.53 59.85,-144.05 65.49,-135.09 58.67,-133.53"/>
<polygon fill="black" stroke="black" points="69.22,-118.8 68.03,-108.28 62.39,-117.24 69.22,-118.8"/>
</g>
</g>
</svg>
