<?xml version="1.0" encoding="UTF-8" standalone="no"?>
<!DOCTYPE svg PUBLIC "-//W3C//DTD SVG 1.1//EN"
 "http://www.w3.org/Graphics/SVG/1.1/DTD/svg11.dtd">
<!-- Generated by graphviz version 2.50.0 (0)
 -->
<!-- Title: G Pages: 1 -->
<svg width="294pt" height="171pt"
 viewBox="0.00 0.00 294.00 171.00" xmlns="http://www.w3.org/2000/svg" xmlns:xlink="http://www.w3.org/1999/xlink">
<g id="graph0" class="graph" transform="scale(1 1) rotate(0) translate(4 167)">
<title>G</title>
<polygon fill="white" stroke="transparent" points="-4,4 -4,-167 290,-167 290,4 -4,4"/>
<g id="clust1" class="cluster">
<title>cluster_0</title>
<polygon fill="none" stroke="black" points="8,-80 8,-155 278,-155 278,-80 8,-80"/>
<text text-anchor="middle" x="143" y="-139.8" font-family="Helvetica,Arial,sans-serif" font-size="14.00">clients</text>
</g>
<g id="clust2" class="cluster">
<title>cluster_3</title>
<polygon fill="none" stroke="black" points="80,-8 80,-60 206,-60 206,-8 80,-8"/>
</g>
<!-- client1 -->
<g id="node1" class="node">
<title>client1</title>
<ellipse fill="lightgrey" stroke="black" cx="234" cy="-106" rx="36.29" ry="18"/>
<text text-anchor="middle" x="234" y="-102.3" font-family="Helvetica,Arial,sans-serif" font-size="14.00">client1</text>
</g>
<!-- cc -->
<g id="node4" class="node">
<title>cc</title>
<ellipse fill="none" stroke="black" cx="143" cy="-34" rx="54.69" ry="18"/>
<text text-anchor="middle" x="143" y="-30.3" font-family="Helvetica,Arial,sans-serif" font-size="14.00">coordinator</text>
</g>
<!-- client1&#45;&gt;cc -->
<g id="edge1" class="edge">
<title>client1&#45;&gt;cc</title>
<path fill="none" stroke="black" d="M215.14,-90.5C202.52,-80.79 185.68,-67.83 171.44,-56.88"/>
<polygon fill="black" stroke="black" points="173.47,-54.03 163.41,-50.7 169.21,-59.57 173.47,-54.03"/>
</g>
<!-- client2 -->
<g id="node2" class="node">
<title>client2</title>
<ellipse fill="lightgrey" stroke="black" cx="143" cy="-106" rx="36.29" ry="18"/>
<text text-anchor="middle" x="143" y="-102.3" font-family="Helvetica,Arial,sans-serif" font-size="14.00">client2</text>
</g>
<!-- client2&#45;&gt;cc -->
<g id="edge2" class="edge">
<title>client2&#45;&gt;cc</title>
<path fill="none" stroke="black" d="M143,-87.7C143,-79.98 143,-70.71 143,-62.11"/>
<polygon fill="black" stroke="black" points="146.5,-62.1 143,-52.1 139.5,-62.1 146.5,-62.1"/>
</g>
<!-- client3 -->
<g id="node3" class="node">
<title>client3</title>
<ellipse fill="lightgrey" stroke="black" cx="52" cy="-106" rx="36.29" ry="18"/>
<text text-anchor="middle" x="52" y="-102.3" font-family="Helvetica,Arial,sans-serif" font-size="14.00">client3</text>
</g>
<!-- client3&#45;&gt;cc -->
<g id="edge3" class="edge">
<title>client3&#45;&gt;cc</title>
<path fill="none" stroke="black" d="M70.86,-90.5C83.48,-80.79 100.32,-67.83 114.56,-56.88"/>
<polygon fill="black" stroke="black" points="116.79,-59.57 122.59,-50.7 112.53,-54.03 116.79,-59.57"/>
</g>
</g>
</svg>
